<?xml version="1.0" encoding="utf-8"?>
<!-- Generator: Adobe Illustrator 25.0.1, SVG Export Plug-In . SVG Version: 6.00 Build 0)  -->
<svg version="1.1" id="Layer_1" xmlns="http://www.w3.org/2000/svg" xmlns:xlink="http://www.w3.org/1999/xlink" x="0px" y="0px"
	 viewBox="0 0 576 180" style="enable-background:new 0 0 576 180;" xml:space="preserve">
<style type="text/css">
	.st0{fill:#FFFFFF;}
	.st1{fill:#3DAE2B;}
</style>
<g id="XMLID_1_">
	<g id="XMLID_113_">
		<path id="XMLID_132_" class="st0" d="M115.8,92.2h6.8l-3.3-26.9L115.8,92.2z M107.3,55h23.5l11.8,57.5h-17.5l-1.5-9.1h-9.3
			l-1.3,9.1H95.4L107.3,55z"/>
		<rect id="XMLID_131_" x="142.5" y="55" class="st0" width="16.3" height="57.5"/>
		<rect id="XMLID_130_" x="162.8" y="55" class="st0" width="16.3" height="57.5"/>
		<polygon id="XMLID_129_" class="st0" points="195.8,55 233.1,55 233.1,68.7 223.2,68.7 223.2,112.5 206.1,112.5 206.1,68.7 
			195.8,68.7 		"/>
		<polygon id="XMLID_128_" class="st0" points="235.4,55 252.2,55 252.2,76.1 253.6,72.8 255.3,70.3 257.3,68.7 260,67.7 
			263.1,67.4 266.4,67.8 269.3,69.3 271.6,71.4 273.2,74.5 274.2,78 274.5,82.3 274.5,112.5 258,112.5 258,86.2 257.7,84 
			257.1,82.7 256.3,81.9 255.1,81.7 253.6,81.9 252.8,82.7 252.2,84.4 252,86.9 252,112.5 235.4,112.5 		"/>
		<path id="XMLID_125_" class="st0" d="M277.3,68.7h16.3v43.8h-16.3V68.7z M277.3,64.5V55h16.3v9.5H277.3z"/>
		<polygon id="XMLID_124_" class="st0" points="297.4,68.7 313.5,68.7 313.5,76.1 315.1,72.8 317,70.3 319.2,68.7 321.9,67.7 
			325,67.4 328.3,67.8 331.2,69.3 333.5,71.4 335.1,74.5 336.2,78 336.4,82.3 336.4,112.5 319.6,112.5 319.6,86.2 319.6,84 
			319,82.7 318.2,81.9 317,81.7 315.5,81.9 314.7,82.7 314.1,84.4 313.9,86.9 313.9,112.5 297.4,112.5 		"/>
		<path id="XMLID_121_" class="st0" d="M359.8,85.6l-0.2-1.7l-0.6-1l-0.8-0.6l-1-0.2l-1.2,0.2l-0.8,0.6l-0.6,1l-0.2,1.7v8.1l0.2,1.8
			l0.6,1l0.8,0.6l1.2,0.2l1-0.2l0.8-0.6l0.6-1l0.2-1.8V85.6z M360.6,68.7h15.9v44.6l-0.4,3.9l-1,3.5l-1.9,2.9l-2.5,2.5l-2.9,1.9
			l-3.7,1.4l-3.9,0.9l-4.5,0.2l-3.9-0.2l-3.3-0.4l-3.1-1l-2.5-1.4l-1.9-2.1l-1.6-2.9l-0.8-3.3l-0.4-4.3h15.5l0.4,2.3l1,1.2l1.8,0.6
			l1.2-0.4l1-1.1l0.4-1.6l0.2-1.7v-9.7l-1.7,2.9l-1.9,2.3l-2.2,1.2l-2.7,0.8l-2.7,0.2l-3.3-0.4l-2.5-1.2l-2.1-2.1l-1.5-3.1l-1-3.9
			l-0.6-5l-0.2-6.2l0.2-6l0.6-5l0.8-3.7l1-3.1l1.7-2.3l2-1.4l2.2-0.8l2.9-0.2l3.1,0.2l2.7,1.2l2.3,1.9l2.1,2.7l1.4,3.3L360.6,68.7
			L360.6,68.7z"/>
		<path id="XMLID_118_" class="st0" d="M490.1,68.7h16.3v43.8h-16.3V68.7z M490.1,64.5V55h16.3v9.5H490.1z"/>
		<rect id="XMLID_117_" x="510" y="55" class="st0" width="16.3" height="57.5"/>
		<path id="XMLID_114_" class="st0" d="M544.8,94.1l0.2,2.3l0.6,1.7l0.8,0.8l1.4,0.4l1.2-0.4l1.1-1l0.6-1.7l0.2-2.1v-7.4l-0.2-2.3
			l-0.6-1.4l-1.1-1l-1.2-0.2l-1.3,0.2l-1,1l-0.6,1.4l-0.2,2.3L544.8,94.1L544.8,94.1z M551.4,105.2h-0.2l-1.5,3.1l-1.8,2.5l-2.3,1.7
			l-2.5,0.8l-2.9,0.4l-2.5-0.2l-2.3-0.8l-2.1-1.4l-1.7-1.8l-1.2-2.7l-1-3.5l-0.6-4.1l-0.2-5.2v-6.8l0.2-5.2l0.6-4.1l1-3.5l1.2-2.7
			l1.7-1.8l2.1-1.5l2.5-0.6l2.5-0.2l3.3,0.4l2.9,1.7l2.5,2.3l1.7,3.3V55h16.9v57.5h-16.3L551.4,105.2L551.4,105.2z"/>
	</g>
	<g id="XMLID_2_">
		<path id="XMLID_3_" class="st1" d="M277,137.2h13.2c3,0,5.4,0.8,7.3,2.3s2.8,3.8,2.8,6.6c0,2.3-0.7,4.3-2,6
			c-1.3,1.6-3.3,2.9-6,3.9c3.3,0.5,5.4,2.6,6.2,6.4l2.5,11.7h-9.4l-1.4-10.2c-0.2-1.7-0.7-3-1.2-3.8s-1.5-1.2-2.6-1.2h-0.8v15.2H277
			V137.2z M285.6,144.4v7.9h1.9c1.3,0,2.4-0.4,3.1-1.2c0.7-0.8,1.1-1.8,1.1-3c0-1.2-0.3-2.2-0.9-2.8c-0.6-0.6-1.5-0.9-2.8-0.9H285.6
			z"/>
		<path id="XMLID_7_" class="st1" d="M323.7,171.9c-3.2,1.8-6.2,2.7-9,2.7c-3.6,0-6.6-1.2-8.9-3.7c-2.3-2.4-3.4-5.6-3.4-9.4
			c0-3.7,1.1-6.8,3.2-9.4c2.1-2.6,5-3.9,8.6-3.9c3.2,0,5.7,1.1,7.6,3.3c1.9,2.2,2.9,5.2,2.9,8.9v2.1h-13.6c0.4,1.7,1,3,2,3.8
			c0.9,0.9,2.1,1.3,3.6,1.3c1.1,0,2.2-0.3,3.1-0.8c1-0.5,2.2-1.4,3.8-2.8L323.7,171.9L323.7,171.9z M317.4,158.1v-0.9
			c0-1.1-0.3-2.1-0.9-2.9s-1.4-1.2-2.3-1.2c-1.1,0-1.9,0.4-2.5,1.2s-0.9,2.1-1,3.8L317.4,158.1L317.4,158.1z"/>
		<path id="XMLID_12_" class="st1" d="M329,137.2h8.4v13.9c0.8-0.9,1.7-1.6,2.6-2.1c0.9-0.5,1.9-0.7,3-0.7c2,0,3.6,0.8,4.9,2.3
			c1.3,1.5,1.9,3.4,1.9,5.6v17.9h-8.4v-16.6c0-1.4-0.5-2-1.7-2c-0.8,0-1.3,0.4-1.7,1.1s-0.6,1.9-0.6,3.3v14.2H329V137.2z"/>
		<path id="XMLID_17_" class="st1" d="M356.1,150.3c2.9-1.4,5.6-2,8.2-2c1.9,0,3.6,0.3,5,1s2.6,1.8,3.6,3.2s1.5,3.4,1.5,5.7v8.5
			c0,2.4,0.5,4.9,1.5,7.3h-8.4c-0.3-0.7-0.6-1.5-0.8-2.4c-0.8,1-1.7,1.7-2.6,2.2c-0.9,0.5-1.9,0.8-2.9,0.8c-2,0-3.7-0.8-5.2-2.3
			s-2.3-3.5-2.3-5.7c0-5,4.3-8.1,13-9.2c-0.2-0.9-0.7-1.6-1.4-2.1c-0.8-0.5-1.8-0.7-3.1-0.7c-1.9,0-3.9,0.8-6,2.4L356.1,150.3
			L356.1,150.3z M366.7,161.6c-3.5,0.3-5.3,1.6-5.3,3.9c0,0.9,0.3,1.6,0.8,2.2c0.5,0.6,1.1,0.9,1.9,0.9c0.9,0,1.5-0.4,1.9-1.1
			s0.7-1.6,0.7-2.7L366.7,161.6L366.7,161.6z"/>
		<path id="XMLID_24_" class="st1" d="M379.7,137.2h8.3v14.2c0.8-1,1.7-1.8,2.6-2.3c0.9-0.5,1.9-0.8,2.9-0.8c2.5,0,4.6,1.3,6.2,3.8
			s2.4,5.5,2.4,8.9c0,3.8-0.9,7.1-2.8,9.7c-1.9,2.7-4.1,4-6.7,4c-1,0-1.9-0.2-2.7-0.7c-0.9-0.5-1.7-1.1-2.5-2l-2.3,2.1h-5.4
			L379.7,137.2L379.7,137.2z M388,166.2c0.4,0.5,0.7,0.8,1.1,1s0.8,0.3,1.2,0.3c1,0,1.7-0.6,2.3-1.7s0.9-2.7,0.9-4.6
			c0-1.8-0.3-3.2-0.8-4.2s-1.2-1.5-2.1-1.5c-0.9,0-1.5,0.4-2,1.2s-0.7,2-0.7,3.6L388,166.2L388,166.2z"/>
		<path id="XMLID_28_" class="st1" d="M410.7,136.6c1.1,0,2.2,0.4,3.1,1.2s1.4,1.9,1.4,3.2c0,1.2-0.5,2.3-1.3,3.2
			c-0.9,0.9-2,1.3-3.2,1.3c-1.3,0-2.3-0.4-3.2-1.3s-1.3-1.9-1.3-3.2c0-1.2,0.5-2.3,1.4-3.1C408.4,137,409.5,136.6,410.7,136.6z
			 M406.4,148.9h8.4v25.2h-8.4V148.9z"/>
		<path id="XMLID_39_" class="st1" d="M420.5,137.2h8.4v36.9h-8.4V137.2z"/>
		<path id="XMLID_41_" class="st1" d="M438.9,136.6c1.1,0,2.2,0.4,3.1,1.2s1.4,1.9,1.4,3.2c0,1.2-0.5,2.3-1.3,3.2
			c-0.9,0.9-2,1.3-3.2,1.3c-1.3,0-2.3-0.4-3.2-1.3s-1.3-1.9-1.3-3.2c0-1.2,0.5-2.3,1.4-3.1C436.6,137,437.6,136.6,438.9,136.6z
			 M434.6,148.9h8.4v25.2h-8.4V148.9z"/>
		<path id="XMLID_44_" class="st1" d="M450.7,141.3h7v7.6h4.2v6.2h-3.8v10.3c0,1.6,0.6,2.4,1.9,2.4c0.6,0,1.2-0.2,1.9-0.7v6.8
			c-1.5,0.6-3.1,0.8-4.7,0.8c-2.6,0-4.5-0.6-5.8-1.9s-1.8-3.2-1.8-5.8v-12h-3.1v-6.2h3.6L450.7,141.3z"/>
		<path id="XMLID_46_" class="st1" d="M467.2,150.3c2.9-1.4,5.6-2,8.2-2c1.9,0,3.6,0.3,5,1s2.6,1.8,3.6,3.2s1.5,3.4,1.5,5.7v8.5
			c0,2.4,0.5,4.9,1.5,7.3h-8.4c-0.3-0.7-0.6-1.5-0.8-2.4c-0.8,1-1.7,1.7-2.6,2.2c-0.9,0.5-1.9,0.8-2.9,0.8c-2,0-3.7-0.8-5.2-2.3
			s-2.3-3.5-2.3-5.7c0-5,4.3-8.1,13-9.2c-0.2-0.9-0.7-1.6-1.4-2.1c-0.8-0.5-1.8-0.7-3.1-0.7c-1.9,0-3.9,0.8-6,2.4L467.2,150.3
			L467.2,150.3z M477.7,161.6c-3.5,0.3-5.3,1.6-5.3,3.9c0,0.9,0.3,1.6,0.8,2.2c0.5,0.6,1.1,0.9,1.9,0.9c0.9,0,1.5-0.4,1.9-1.1
			s0.7-1.6,0.7-2.7L477.7,161.6L477.7,161.6z"/>
		<path id="XMLID_49_" class="st1" d="M491.9,141.3h7v7.6h4.2v6.2h-3.8v10.3c0,1.6,0.6,2.4,1.9,2.4c0.6,0,1.2-0.2,1.9-0.7v6.8
			c-1.5,0.6-3.1,0.8-4.7,0.8c-2.6,0-4.5-0.6-5.8-1.9s-1.8-3.2-1.8-5.8v-12h-3.1v-6.2h3.6L491.9,141.3z"/>
		<path id="XMLID_51_" class="st1" d="M511.6,136.6c1.2,0,2.2,0.4,3.1,1.2s1.4,1.9,1.4,3.2c0,1.2-0.5,2.3-1.3,3.2
			c-0.9,0.9-2,1.3-3.2,1.3c-1.3,0-2.3-0.4-3.2-1.3s-1.3-1.9-1.3-3.2c0-1.2,0.5-2.3,1.4-3.1C509.3,137,510.4,136.6,511.6,136.6z
			 M507.4,148.9h8.4v25.2h-8.4V148.9z"/>
		<path id="XMLID_136_" class="st1" d="M531.7,148.3c3.5,0,6.3,1.1,8.5,3.4c2.2,2.3,3.3,5.5,3.3,9.6c0,3.9-1.1,7.1-3.2,9.6
			c-2.1,2.5-5,3.7-8.7,3.7s-6.5-1.2-8.6-3.7s-3.1-5.6-3.1-9.4c0-3.9,1.1-7.2,3.2-9.6C525.4,149.5,528.2,148.3,531.7,148.3z
			 M531.8,154.8c-1,0-1.8,0.6-2.3,1.7c-0.5,1.1-0.8,2.8-0.8,5c0,2.2,0.3,3.9,0.8,5s1.3,1.7,2.3,1.7c1.1,0,1.8-0.6,2.4-1.6
			c0.5-1.1,0.8-2.8,0.8-5c0-2.3-0.3-3.9-0.8-5.1C533.6,155.3,532.8,154.8,531.8,154.8z"/>
		<path id="XMLID_139_" class="st1" d="M555.8,151.5c0.7-1.1,1.6-1.9,2.5-2.4s2-0.8,3.2-0.8c2,0,3.7,0.7,5,2.2s2,3.3,2,5.4v18.2
			h-8.4v-16.4c0-1.4-0.5-2.1-1.6-2.1c-0.7,0-1.3,0.4-1.8,1.2c-0.4,0.8-0.7,1.9-0.7,3.2v14.1h-8.3v-25.2h7.2L555.8,151.5z"/>
	</g>
	<path id="path4689_1_" class="st0" d="M418.5,34.4c-0.3-0.3-0.2-0.8,0.2-1.1c0.4-0.2,2.6-2,6.5-5.4c5-4.2,8-6.8,9.5-7.8
		c3.4-2.4,7.4-4.1,12-5c2.9-0.6,6.4-0.8,9.2-0.6c2.2,0.1,2.6,0.1,3.3-0.1c0.3-0.1,1.1-0.5,1.7-0.9c1.4-0.9,1.7-1,2.7-1.4
		c1.3-0.5,2-0.6,4.4-0.8c1.3-0.1,1.4-0.1,2.5-0.8c1.2-0.7,2.2-1.4,4.2-3.1c0.9-0.8,1.9-1.5,2.2-1.7c0.3-0.2,1-0.8,1.6-1.3
		c1.4-1.2,2.4-1.9,3.4-2.3l0.7-0.4l21.1,0c14.9,0,21.1,0,21.1,0.1c0.2,0.4-0.5,1.2-1.5,1.7l-0.7,0.3l-1.8,0.1
		c-4.3,0.1-9.1,0-16.5-0.3c-2.1-0.1-4.8-0.2-5.9-0.2s-2.7-0.1-3.5-0.2c-0.8,0-2.4-0.1-3.4-0.1l-2,0l-1,0.3
		c-3.4,1.2-6.2,2.7-11.5,6.7c-1,0.7-2,1.4-2.4,1.6c-1.1,0.6-2.1,1.6-1.9,2.1c0.1,0.2,0.5,0.5,0.8,0.5c0.6,0,3.3-1.3,4.9-2.3
		c0.5-0.3,1-0.6,1.2-0.7s0.8-0.6,1.3-1c1.2-1.1,1.6-1.3,2.2-1.1l0.3,0.1l-0.1,0.6c-0.1,1.4-0.6,2.9-1.5,4.6c-0.6,1.1-2,3.4-2.9,4.7
		c-1,1.4-2.5,2.7-3.4,3c-1.1,0.3-1.1,0.4,0,1.9c0.2,0.2,0.3,0.5,0.3,0.5c0,0.1,0,0.1,0.1,0c0.7-0.3,1.5-0.6,1.9-0.6
		c0.8-0.2,1.8,0,2.1,0.4c0.1,0.1,0.1,0.2-1.1,0.3c-2.8,0.3-4.9,1.9-5.7,4.2c-0.1,0.2-0.2,0.4-0.2,0.4c-0.2-0.1-0.6-1.2-0.7-1.6
		c0-0.5,0.2-1.1,0.7-1.4l0.3-0.2l-0.4-0.4c-0.2-0.2-0.7-0.7-1-1.2c-0.5-0.6-0.7-0.9-1-1c-0.8-0.4-1.7,0-3.3,1.1
		c-1.4,1-2.4,1.5-3,1.2c-0.3-0.1-0.3-0.4,0.1-1.4c0.3-0.9,0.4-1.2,0.2-1.5c-0.1-0.1-0.2-0.2-0.7-0.1c-0.5,0-0.6,0-0.9-0.2
		c-0.4-0.2-0.8-0.8-1.1-1.4c-0.1-0.3-0.3-0.6-0.5-0.8c-0.5-0.5-0.8-0.9-1.5-2.4c-0.4-0.8-0.8-1.4-1-1.7c-0.3-0.4-0.4-0.4-1-0.5
		c-2-0.4-4.2-0.4-6.5,0.2c-3.1,0.8-5.7,1.8-9.2,3.6c-3,1.5-5.3,2.9-10.2,6.2c-1.8,1.2-3.4,2.2-3.6,2.4c-0.2,0.1-0.7,0.5-1.1,0.8
		c-1.4,1.1-2,1.4-3.1,1.6c-1,0.1-1.5,0.4-3.3,2c-0.9,0.8-2.1,1.7-2.4,1.7C418.8,34.6,418.6,34.5,418.5,34.4L418.5,34.4z M473.1,23.4
		c0-0.3,0-0.4-0.2-0.6c-0.3-0.3-0.5-0.4-0.8-0.2c-0.3,0.1-0.4,0.4-0.2,0.6c0.2,0.2,0.8,0.6,1,0.6C473,23.7,473.1,23.7,473.1,23.4
		L473.1,23.4z"/>
	<g id="XMLID_106_">
		<polygon id="XMLID_109_" class="st0" points="367.2,38.6 367.5,38.8 367.7,38.8 367.7,38.5 		"/>
		<polygon id="XMLID_108_" class="st0" points="383.3,55.1 383.3,54.9 383,54.7 383,54.9 		"/>
		
			<rect id="XMLID_107_" x="372.6" y="41.4" transform="matrix(0.995 -9.970174e-02 9.970174e-02 0.995 -2.2871 37.3712)" class="st0" width="0.2" height="0.3"/>
	</g>
	<g id="XMLID_90_">
		<polygon id="XMLID_105_" class="st0" points="336.1,51 336.4,51.5 336.4,51 336.3,50.7 336.3,50.5 336.5,50.2 336.7,49.5 
			336.6,48.7 336.6,48.5 336.3,48 335.8,47.8 335.5,47.6 335.5,47.4 335.2,47.4 335,47.2 334.7,47 334.2,47 334,47 334,47.3 
			333.8,47.3 333.8,47.5 333.8,47.8 333.9,48 333.9,48.3 333.7,48.5 334,48.8 334.5,49.2 335,49.4 335.3,49.6 335.6,50.6 
			335.9,50.8 336.1,50.8 		"/>
		<polygon id="XMLID_104_" class="st0" points="333.9,45.6 334.2,46.1 334.4,46 334.1,45.6 		"/>
		<polygon id="XMLID_103_" class="st0" points="333.3,44.9 333.3,44.7 333.5,44.4 333.7,44.4 333.7,44.1 333.7,43.9 333.9,43.6 
			333.9,43.4 333.9,43.4 333.9,43.1 333.8,42.6 334.3,42.4 334.2,42.1 333.7,41.7 333.2,41.5 332.9,41.2 331.9,41.1 331,41.2 
			330.7,41.2 330.2,41.3 330,41.5 329.8,41.8 329.9,42.3 329.6,42.3 329.4,43.1 329.7,43.5 330,44 330.8,44.7 331.3,44.9 
			331.8,45.1 332.3,45.2 332.9,45.4 333.1,45.7 333.3,45.1 		"/>
		<polygon id="XMLID_102_" class="st0" points="335.6,43.5 335.9,43.4 335.6,43.2 335.3,43 335.1,43 335.1,43.2 335.4,43.5 		"/>
		<polygon id="XMLID_101_" class="st0" points="339.2,51.9 339.2,52.2 339.2,52.4 339,52.4 338.8,52.7 338.5,52.7 338.5,53 
			338.8,53.2 339,53.2 339.3,52.9 339.4,52.4 339.6,52.1 339.4,51.9 		"/>
		<polygon id="XMLID_100_" class="st0" points="336,54.7 336,54.7 336.1,53.2 		"/>
		<polygon id="XMLID_99_" class="st0" points="336.6,46.5 336.7,47 337,47.2 337.3,47.7 337.5,47.9 337.7,47.7 337.7,47.4 338,47.4 
			338.2,46.9 338.1,46.6 338.1,46.4 337.8,46.2 337.5,45.7 337.3,45.5 337.1,45.8 337.1,46 337.1,46.2 336.9,46.3 		"/>
	</g>
	<g id="XMLID_62_">
		<polygon id="XMLID_63_" class="st0" points="415,94.3 414,91.6 412.7,89.3 411.1,87.7 409,86.6 406.9,85.8 404.7,85.4 402.4,85 
			400.4,84.6 398.3,84.4 396.6,83.8 395.4,83.2 394.6,82.1 394.1,80.7 394.6,78.4 395.4,77.2 397.3,76.9 397.9,76.9 398.5,77.2 
			399.1,77.6 399.5,78.2 399.9,79 400.4,80 400.4,81.3 414.6,81.3 414.2,77.3 413.1,74.2 411.7,71.8 409.4,69.9 406.9,68.7 
			403.6,67.8 400.1,67.4 396.2,67.4 391.3,67.7 387.1,68.5 385.4,69.3 385.3,69.5 385.6,70 385.6,70.5 385.7,70.9 386,71.2 
			386,72.1 386.6,72.8 386.6,73.1 387.3,75.2 388.2,76.6 389.1,78.7 389.4,79.4 389.5,80.1 389.8,80.3 390.1,80.8 390.3,81 
			390.7,81.7 390.9,82.2 391.2,82.4 391.5,82.9 391.8,83.6 392.4,84.2 392.7,85 393,85.2 393.5,85.8 393.8,86.3 394.1,87 
			394.4,87.5 394.7,87.7 394.7,87.9 395,88.1 395.3,88.6 395.6,89.1 395.9,89.5 396.1,89.8 396.1,90 396.4,90.2 396.4,90.4 
			396.7,90.4 396.7,90.7 397,90.9 397,91.1 397.5,91.6 397.8,92.1 398.1,92.8 398.7,93.2 399.2,93.6 399.5,93.8 399.5,94.3 
			399.8,94.5 400.1,95 400.6,95.2 400.9,95.7 401.2,96.1 401.4,96.1 401.7,96.6 401.7,96.8 402.2,97 402.5,97.2 402.5,97.4 
			402.8,97.7 403,97.6 403.1,98.1 403.6,98.3 403.8,98.3 404.1,98.5 404.6,99 405.1,99.2 405.7,99.6 406.2,99.8 406.7,100 
			407,100.2 407.2,100.2 407.5,100.4 407.8,100.6 408,100.6 408.8,101 409.8,101.4 411.3,102 411.8,102.2 412,102.2 413,102.3 
			414.1,102.7 414.3,102.9 414.5,103.2 414.5,103.4 413.9,103.4 413.1,103.3 408.1,102 407.6,101.9 405.1,100.9 404.5,100.4 
			401.1,98.1 400.9,97.9 395.7,92.8 395.1,91.8 391.2,87.1 387.2,81.3 386.9,80.9 386.6,80.2 383.5,73.4 383.2,72.9 382.2,71.6 
			381.6,72.2 379.9,74.9 378.9,78.2 378.7,82.1 379.1,85.6 379.9,88.5 381.6,90.8 383.4,92.4 385.5,93.7 387.7,94.7 390.2,95.5 
			392.5,96 394.6,96.6 396.6,97.2 398.1,98 398.9,99.2 399.3,100.7 399.1,101.9 398.5,103 397.5,103.8 396,104 395.2,104 
			394.6,103.8 394,103.4 393.5,102.8 393.1,102.2 392.9,101.5 392.9,100.7 392.9,99.7 378.1,99.7 378.5,103.4 379.5,106.3 
			381.1,108.8 383.2,110.6 385.7,111.9 388.4,112.7 391.3,113.3 394,113.7 396.6,113.7 401.4,113.5 405.3,112.7 408.4,111.5 
			411.1,109.8 412.9,107.5 414.2,104.8 415,101.5 415.2,97.8 		"/>
	</g>
	<g id="XMLID_14_">
		<g id="XMLID_53_">
			<polygon id="XMLID_61_" class="st0" points="338.9,42.4 339.1,42.1 338.9,42.1 			"/>
			<path id="XMLID_56_" class="st0" d="M385.9,69l-0.6-0.9l0.3,0l0-0.2l-0.3-0.2l0-0.5l0-0.2l0.3,0l0.2-0.3l-0.2,0l-0.3-0.4l0.3,0
				l0-0.5l-0.3-0.4l0.3,0.2l0-0.2l0-0.2l0-0.3l-0.3,0l0-0.2l0.3,0l0.2,0.2l-0.3-0.5l0-0.3l-0.3-0.2l0-0.2l-0.3-0.7l0-0.2l0.2,0
				l0,0.2l0,0.2l0.2-0.3l0-0.2l-0.3-0.2l0-0.5l-0.3-0.5l0.2,0l0-0.3l0-0.2l0-0.2l-0.3-0.2l0-0.2l0-0.3l0-0.3l-0.3-0.5l0-0.2l0-0.3
				l-0.3-0.2l0-0.2l0.3,0l0.2,0l-0.3-0.2l0-0.2l-0.3,0l0-0.2l0-0.2l-0.3,0l0.2-0.3l0,0.2l0.3,0.2l0.2,0.2l0-0.2l0-0.2l-0.2-0.2
				l0-0.2L384,57l-0.6-0.7l0.3,0l-0.3-0.2l0-0.2l0-0.3l-0.3,0l0-0.2l-0.2,0l0-0.2l0-0.2l-0.3-0.2l-0.3-0.2l-0.6-0.4l0.3,0.2l0.2,0
				l0,0.3l0.2,0l0.3,0.2l0.2,0l0.2-0.3l-0.5,0l0-0.3l0.2,0l0.3,0l0.3,0l-0.3-0.2l-0.3,0l-0.2-0.2l-0.3-0.2l0-0.2l0.3,0l0-0.3l0-0.2
				l0-0.5l0-0.2l-0.3-0.2l0.2-0.2l0-0.2l-0.3-0.2l-0.2-0.2l0-0.3l0.2-0.3l-0.2-0.2l0-0.3l0-0.2l-0.2,0l-0.3-0.2l0-0.3L381,49
				l-0.3-0.2l-0.2-0.2l-0.3-0.2l-0.8-0.4l1-0.1l-0.3-0.2l0-0.2l-0.5-0.4l0.2,0l-0.2-0.2l-0.3-0.2l-0.3-0.2l-0.2,0l0-0.2l-0.2,0
				l0-0.3l-0.2-0.2l-0.5-0.2l-0.2,0l0-0.2l-0.5-0.2l-0.5-0.2l-0.5,0l-0.2,0l-0.3-0.2l0.2,0l0.5,0l0.5,0.2l0.2,0l0.5,0l0.5,0
				l-0.5-0.2l-0.3-0.2l0.3,0l0.2,0L377,44l-0.2-0.2l0.5,0l-0.8-0.4l-0.5-0.4l-0.8-0.2l-0.3,0l-0.5-0.2l-0.2-0.2l-0.2,0l-0.3-0.2
				l-0.5-0.2l-0.5,0l-0.5-0.2l-0.7,0.1l-0.3,0l-0.2-0.2l0.5,0.2l0.2-0.3l0.3,0l0.5,0l0-0.3l-0.2,0l-0.3,0l-0.3-0.2l-1.5-0.1l0.2,0
				l0.3,0l0.3,0l0-0.3l-0.3-0.2l-0.3,0l-0.2-0.2l-0.2,0l0.2-0.2l-0.3-0.2l0.2,0l-0.8-0.2l-0.5-0.2l0.5-0.3l-0.5-0.2l-0.5-0.2l-0.5,0
				l0,0.2l-0.7,0.1l-0.2-0.2l-0.3,0l-0.2-0.2l0-0.2l0.2,0l0,0.2l0.2-0.3l0.2,0l0.3,0l0.5,0l-0.5-0.2l-0.3,0l-0.2,0l0.2-0.3l-0.5,0
				l-0.2-0.2l0.5-0.3l-0.3-0.2l-0.2,0l-0.3,0l-0.2,0l-0.5,0l-0.5,0l-0.2,0l-0.2,0l-0.5,0l-0.2,0l-0.2,0l0.2-0.3l0.2,0l0.5,0l0.2-0.3
				l0-0.2l-0.2,0l-0.3,0l0-0.5l-0.2,0.2l-0.3-0.2l-0.2,0.2l0-0.5l-0.5,0l0,0.3l-0.2,0l-0.2,0l-0.2,0l-0.2,0l-0.2,0.2l-0.2,0.3
				l-0.2,0l-0.5,0.3l0.2-0.2l0.2-0.3l-0.2,0l-0.2,0.3l-0.3,0l0.4-0.5l-0.2,0l-0.2,0.2l-0.2,0l0.2-0.2l-0.7,0.1l-0.3,0l-0.2,0.5
				l0-0.3l0.2-0.5l-0.2,0l0-0.3l-0.5,0.3l-0.3-0.2l-0.2,0.3l-0.2,0l-0.3,0l-0.2,0.3l-0.2,0.2l-0.2,0l-0.2,0.3l0,0.2l-0.2,0l0-0.2
				l-0.2-0.2l0-0.2l0-0.3l-0.7,0.6l0-0.2l-0.2,0l0,0.2l-0.3,0l0-0.2l0-0.3l-0.2,0.3l-0.3-0.2l-0.3-0.2l0,0.3l-0.2,0.5l-0.2,0.3
				l-0.2,0.2l-0.3-0.2l-0.3-0.5l-0.2,0.2l-0.2,0.5l-0.2,0.3l-0.2,0.3l-0.2,0l0,0.2l0,0.3l-0.2,0.2l-0.3-0.2l0-0.3l-0.2,0.3l-0.2,0
				l-0.2,0l0-0.3l0.2,0l0.2-0.2l-0.2,0l-0.3-0.2l0.2-0.3l0.2-0.5l-0.2,0.3l-0.5,0.3l-0.2,0.3l0-0.3l0.2-0.2l0-0.3l-0.7,0.3l0-0.3
				l-0.3,0l-0.2-0.2l-0.5,0.3l-0.2,0l-0.3-0.2l0.5,0l0-0.3l-0.7,0.1l-0.5,0.3l0-0.5l0-0.2l-0.3-0.2l-0.1-0.7l-0.5-0.4l-0.5-0.2
				l-0.2,0l-1,0.1l-0.5,0l-0.7,0.3l-0.6,0.5l-0.2,0l0,0.2l-0.3,0l-0.2,0.2l-0.2,0.5l0,0.2l-0.2-0.2l0-0.3l-0.2,0l-0.3-0.2l0-0.2
				l-0.2,0.2l-0.3,0l-0.2,0l-0.5,0l-0.2,0.5l-0.2,0.2l0,0.3l0,0.3l-0.3-0.2l-0.2,0.3l0-0.3l0-0.3l-0.3-0.2l-0.2,0l-0.2,0.2l-0.2,0.3
				l0,0.3l0,0.1H338l-0.2-0.3l-0.2,0.3l0-0.3l-0.2,0l0,0.3l-0.3,0l-0.2,0l-0.2,0.2l-0.2,0.3l-0.1,0.2l-0.1,0L336,40l-0.2,0l-0.5,0
				l-0.3-0.2l0.3,0.7l-0.5-0.4l-0.2,0l0,0.3l0,0.2l0,0.3l0.3,0.2l0.2,0l0,0.3l-1-0.2l0,0.3l0,0.2l0,0.2l0.3,0.5l0,0l0.2,0l0.2,0
				l-0.3-0.2l0.2-0.3l0.2,0l0.3,0.2l0-0.3l0-0.2l0.3,0l0,0.2l0.2,0l-0.3-0.5l0.2,0l0-0.3l0.3,0l0,0.3l0,0.2l0.2,0l0.3,0l-0.1-0.7
				l0.3,0.2l0.2,0.2l-0.2,0l0,0.2l0,0.2l0.2,0.2l0,0.2l0,0.2l-0.2,0l0,0.3l-0.3-0.2l0,0.5l-0.3,0l0-0.2l-0.3-0.2l-0.3,0l-0.2,0
				l0,0.3l0.2,0.2l0,0.2l0.3,0.5l0.2-0.5l0.3,0.2l0.3,0.5l0,0.2l-0.3-0.2l-0.3,0l0.3,0.2l0,0.3l0.3,0.2l0,0.2l0.2,0.2l0.2-0.3
				l-0.2,0l0-0.5l0.6,0.4l0.2-0.5l-0.2-0.2l0-0.2l0-0.2l0-0.2l0-0.1l0.2,0.1L338,43l0.5,0.7l0.2-0.3l0-0.2l0-0.5l0-0.5l0.2-0.2
				l0.2-0.8l0.3,0l0,0.2l0,0.3l-0.3,0l0.3,0.2l0.2,0l0,0.5l0.2-0.5l0-0.2l0-0.3l0.5,0l0,0.3l0.3,0.2l0,0.2l0.4-0.5l0.3,0l0.3,0.2
				l0-0.2l0.3,0l0.2,0l0,0.2l0.2-0.3l0.3,0.2l0.2,0l-0.2,0.5l1.4-0.4l0,0.5l-0.2,0l-0.3,0l-0.2-0.2l0,0.2l0.3,0.5l0,0.2l0,0.2
				l-0.2,0.5l-0.2,0.3l0-0.5l-1.5-0.3l-0.2,0.3l-0.3,0l0,0.2l-0.2,0.3l0,0.2l0,0.5l-0.2,0.3l0,0.2l-0.2,0.3l-0.2,0l0,0.2l0,0.3
				l-0.3,0l-0.4,0.8l-0.7,0.8l-0.2,0l0,0.2l0.1,0.7l0.1,1.2l0.3,0.2l0,0.5l0.3,0.4l0,0.2l0,0.5l-0.2,0.3l0,0.2l0.2-0.2l-0.2,0.5
				l0.2,0l0.2,0l0.5,0l0,0.3l0,0.2l-0.2,0l0,0.5l-0.3,0l-0.2-0.2l0,0.2l-0.2,0.5l-0.2,0.3l-0.5,0.3l0.3,0l0,0.2l-0.5,0.3l-0.3-0.2
				l-0.2,0.3l-0.2,0l-0.3-0.2l-0.2,0.3l-0.2,0.3l-0.5,0l-0.7,0.6l-0.2,0.3l0.3,0.2l0.5,0.4l0.5,0.5l0.3,0l0.2,0l0.2-0.3l0.5,0
				l0.8,0.2l0.5,0.2l0.3,0.2l0.3,0.2l0.3,0.2l0.3,0l0.8,0.4l0.3,0.5l0,0.2l0.3,0l0.2,0.2l0.2,0l0,0.2l0,0.2l0.3,0.5l0,0.2l0.8,0.4
				l0.8,0.4l0.3,0.2l0.3,0.5l0,0.2l0.3,0.5l0.3,0.2l0.2,0l0.6,0.4l0.5,0l0.5,0l0.5,0.4l0.3,0.2l0.5,0l0.5,0l0.3,0.2l-0.2,0.3
				l-0.2,0.2l-0.2,0.3l-0.4,0.3l-0.5,0.3l-0.2,0.3l0,0.2l-0.2,0.2l-0.5-0.1l-0.2,0.5l-0.2,0.2l-0.2,0.3l0,0.5l0,0.5l0,0.3l0.3,0.2
				l0.3,0.2l0.2,0.2l0.2,0l0.2,0l0,0.2l-0.2,0.2l0.2,0l0.3,0l0.5-0.1l0.3,0l0.2-0.2l0-0.5l1.1-0.9l0.2,0l0.2,0l0.5-0.1l0,0.3l0,0.2
				l0.3,0.2l0.2,0.2l0.3,0.2l0.2,0l0.3,0.2l0.5,0.7l0.3,0l0.2-0.3l0.2-0.5l0-0.5l1.1-0.9l0.3,0l0.2,0l1.2-0.1l0-0.5l-0.3-0.5
				l-0.3-0.2l0.7-0.1l1.5,0.1l1.5,0.3l1.5,0.1l0.7-0.1l0.3,0.5l0.3,0.2l-0.4,1l-0.2,0.5l0,0.3l0.3,0.2l0.2-0.2l-0.6,1l0.2,0.2
				l0.2-0.3l0.5-0.3l0,0.5l-0.2,0.2l0,0.5l0.2-0.3l0.2,0l0-0.2l0.5-0.3l0.3,0l-0.2,0.7l0.3,0l0.2,0l0.5-0.1l0.2-0.3l1.1-1.6l0.3,0
				l0,0.3l0.4-0.5l-0.6,1l0.3,0.2l0.2-0.3l0.5-0.3l0,0.5l-0.2,0.2l0,0.5L367,70l0.2,0l0-0.2l0.2-0.2l0.5,0.2l-0.2,0.5l0.2,0l0.3,0
				l0.5-0.1l0.2-0.3l1.1-1.6l0.5-0.5l0.5-0.3l0.5-0.3l0.5-0.1l0.2-0.3l0,0.3l0.3,0.2l0.2,0l2.9,0l0.3,0l0.3,0.2l0.2,0.2l0,0.3
				l0.3,0.2l0.3,0.2l0.7,0.4l0.8,0.4l0.3,0l0.2,0l0.2-0.3l0.4-0.3l0.3,0.7l0.3,0.4l0.3,0.5l1.8,1.5l3.1-2.1l0.2-0.2l0-0.3l0.3,0
				l0,0.5l0.2-0.3L385.9,69z M352.7,65.3l-0.2-0.2l-0.3,0l-0.3,0l0.3,0.2l0.3,0.2l-0.7,0.8l-0.2,0.3l-0.3-0.5l0.2-0.5l0.4-0.5
				l0.5-0.5l0.5,0.2l0,0.3L352.7,65.3z"/>
			<polygon id="XMLID_55_" class="st0" points="339.3,44.1 339.4,44.3 339.2,44.8 338.9,44.6 338.7,44.9 339,45.1 339.3,45.8 
				339.5,46 339.5,45.7 339.5,45.5 339.6,44 339.5,43.1 339.7,42.5 339.6,42.3 339.5,42.8 			"/>
			<polygon id="XMLID_54_" class="st0" points="338.4,44.2 338.4,43.9 338.1,43.9 338.1,44.2 338.1,44.4 338.5,44.9 338.7,44.9 
				338.6,44.1 			"/>
		</g>
		<g id="XMLID_15_">
			<path id="XMLID_36_" class="st0" d="M87.1,7.3l2,0.1l0.8,0.5L90.1,8l0,0c-0.1,0.1-0.1,0.2,0,0.2l0.4,0.5c0,0,0,0,0.1,0L91,9.1
				c0,0,0.1,0,0.1,0L92,9.1c0,0,0.1,0,0.1,0l0.2-0.1v0.1L92,9.5c-0.1,0.1-0.1,0.2,0,0.2c0.1,0.1,0.1,0.1,0.2,0.1l0.9-0.2l5.5,0.3
				l0.2,0.4c0,0.1,0.1,0.1,0.2,0.1l0.1,0l0.2,0.2c0,0,0.1,0.1,0.1,0.1l0.7,0l0.6,0.2l1.3,0.8c0,0,0.1,0,0.1,0l0.2,0
				c0.1,0,0.1,0,0.2-0.1l0.2-0.2c0,0,0.1-0.1,0.1-0.1v0c0,0,0,0,0,0c0.1,0,0.2-0.1,0.2-0.2v0h0c0,0,0.1,0,0.1,0l0.2-0.1c0,0,0,0,0,0
				l0.4,0.5c0,0,0,0,0.1,0.1l0.4,0.2l0.9,0.5l0.8,0.5l0.2,0.2c0,0,0.1,0.1,0.1,0.1l0.6,0l0.6,0.6l0.4,0.9c0,0,0,0,0,0.1l0.7,0.7
				l0.3,0.2l0,0.1c0,0.1,0,0.1,0.1,0.1l0.1,0.1l0,0.6c0,0,0,0.1,0.1,0.1l0.2,0.3l0.2,0.2c0,0,0.1,0,0.1,0c0.1,0,0.1,0,0.1,0L110,17
				c0.1,0,0.1-0.1,0.1-0.2l-0.2-0.6l0.1-0.1l0,0l0.1,0.2c0,0,0,0,0,0.1l0.2,0.2c0,0,0.1,0.1,0.1,0.1h0l0,0.5c0,0,0,0,0,0.1l0.4,1.5
				l0.4,0.7l0,0.2c0,0.1,0,0.1,0.1,0.1l0.7,0.7l0.6,0.5l0.2,0.4c0,0,0,0,0,0.1l0.4,0.5l0.2,0.2l0.2,0.6l0,0.4c0,0,0,0.1,0,0.1
				l0.2,0.5c0,0,0,0,0,0.1l0.6,0.6l-0.2,0.3c0,0.1,0,0.1,0,0.2c0,0.1,0.1,0.1,0.2,0.1h0.2l1.2,0.3l0.5,0c0,0,0.1,0,0.1,0l1.6-0.8
				c0.1,0,0.1-0.1,0.1-0.2s-0.1-0.2-0.2-0.2l-0.9-0.3l-0.2-0.1l1.3,0.1l1.3,0.3c0,0,0.1,0,0.1,0l1.1-0.2c0.1,0,0.2-0.1,0.2-0.2
				c0-0.1,0-0.2-0.1-0.2l-0.6-0.3l0.7,0l0.1,0.1c0,0,0.1,0.1,0.2,0.1h0v0c0,0.1,0.1,0.2,0.2,0.2l2.5,0.1l1.1,0.2l0.9,0.5l1.8,0.8
				c0.1,0,0.2,0,0.3-0.1l0.3-0.4c0,0,0-0.1,0-0.1l0-0.1l0.1-0.1l0.3,0.2c0,0,0.1,0,0.1,0l0.2,0c0.1,0,0.1,0,0.1,0l0.2-0.2
				c0,0,0.1-0.1,0.1-0.1l0-0.4c0,0,0-0.1-0.1-0.1l-0.2-0.2l-0.1-0.3L130,24c0,0,0,0,0.1,0l0.9,0.2l0.9,0c0.1,0,0.2-0.1,0.2-0.2
				l0-0.4c0-0.1,0-0.1-0.1-0.2l-0.2-0.2l0-0.1c0-0.1-0.1-0.2-0.2-0.2h0l0-0.2c0,0,0-0.1,0-0.1l0,0l-0.8-0.9l-0.2-0.2
				c-0.1-0.1-0.2-0.1-0.3,0l-0.2,0.2c0,0-0.1,0.1-0.1,0.1l-0.4-0.2c0,0-0.1,0-0.1,0l-0.6,0l-0.4-0.4c0,0,0,0-0.1,0l-0.4-0.2
				l-0.4-0.5c-0.1-0.1-0.1-0.1-0.2,0c-0.1,0-0.1,0.1-0.1,0.2l0,0.6l-0.1,0.2l-1.1-0.8c-0.1,0-0.1-0.1-0.2,0c-0.1,0-0.1,0.1-0.1,0.2
				l0,0.2l-0.2,0l-0.2-0.2c0,0-0.1-0.1-0.1-0.1l-0.6,0c-0.1,0-0.2,0.1-0.2,0.2v0l-0.4,0l-0.4-0.4c0,0,0,0,0,0l-0.5-0.3l-0.7-0.2
				c-0.1,0-0.1,0-0.2,0l-0.4,0.2l-0.4,0c-0.1,0-0.1,0-0.1,0l-0.1,0.1l-0.3-0.3c-0.1-0.1-0.1-0.1-0.2-0.1l-0.7,0.2
				c-0.1,0-0.1,0.1-0.1,0.1c0,0.1,0,0.1,0,0.2l0.3,0.4l-0.3-0.4l0-0.1c0-0.1,0-0.1-0.1-0.2l-0.2-0.2c-0.1-0.1-0.2-0.1-0.3,0
				l-0.2,0.1l-0.2,0c-0.1,0-0.2,0.1-0.2,0.2l0,0.4l-0.1,0.1l-1.4-0.1l-0.1-0.4c0,0,0,0,0-0.1l-0.2-0.2c0,0-0.1-0.1-0.1-0.1l-1.3-0.1
				l-0.3-0.2l-0.8-1.3l-0.8-1.9c0-0.1-0.1-0.1-0.2-0.1c0,0-0.1,0-0.2,0.1l-0.1-0.6c0-0.1-0.1-0.2-0.2-0.2c-0.1,0-0.2,0.1-0.2,0.2
				l-0.1,0.6l-0.1-1.3c0-0.1-0.1-0.2-0.2-0.2c0,0,0,0,0,0c-0.1,0-0.2,0.1-0.2,0.2v0.2l-0.1,0.2c0,0,0,0,0-0.1l-0.2-0.4l0-0.4
				c0-0.1-0.1-0.2-0.1-0.2c-0.1-0.1-0.2,0-0.2,0.1L111,15l0,0l-0.1,0.1l0,0l0-0.1c0,0,0,0,0,0L111,15l-0.1-0.1c0,0,0-0.1,0-0.1
				l-0.2-0.4l0-0.4c0-0.1-0.1-0.2-0.2-0.2c-0.1,0-0.2,0-0.2,0.1l-0.1,0.2l-0.2,0.5c0,0,0,0,0,0.1l-0.1,1.1l-0.3-0.3l-0.2-0.6l0-0.4
				c0,0,0-0.1,0-0.1l-0.2-0.4c0,0,0,0,0-0.1l-0.4-0.4l0-0.4c0-0.1,0-0.1-0.1-0.1l-0.2-0.2c0,0-0.1-0.1-0.1-0.1h0l0-0.2l0-0.2
				c0,0,0-0.1,0-0.1l-0.3-0.5l-0.9-1.4l-1.5-1.4l-0.2-0.2c-0.1-0.1-0.2-0.1-0.3,0c-0.1,0.1-0.1,0.2-0.1,0.2l0.4,1l-0.1-0.1L104.8,9
				l-0.4-0.2l-0.2-0.4c0,0,0,0,0,0L104,8.1l-0.1-0.3l0.2-0.1h0.1l0.4,0.4c0,0,0.1,0.1,0.1,0.1l0.2,0c0.1,0,0.2-0.1,0.2-0.2l0-0.4
				l0.1-0.1l0.2,0c0.1,0,0.1,0,0.2-0.1l0.2-0.2l0.1-0.1c0.1-0.1,0.1-0.2,0-0.3l-0.6-0.7l-0.4-0.7c-0.1-0.1-0.2-0.1-0.2-0.1l-0.7,0.2
				l-0.6,0c0,0-0.1,0-0.1,0l-0.6,0.2l-1.1-0.3l-0.9-0.3l-0.2,0l-0.4-0.2c-0.1-0.1-0.2,0-0.2,0l-0.2,0.1l-0.8,0c0,0-0.1,0-0.1,0
				L98,5.5c0,0-0.1,0-0.1,0l-0.2,0.2l-0.3,0l-0.2-0.2c0,0,0,0-0.1,0l-0.4-0.3c0,0-0.1,0-0.1,0l-0.9-0.1c-0.1,0-0.2,0.1-0.2,0.2
				l0,0.2l0,0L95,4.9c-0.1-0.1-0.2-0.1-0.3,0l-0.2,0.2c0,0-0.1,0.1-0.1,0.2l0,0.2c0,0,0,0,0,0.1l-2.7,0c-0.1,0-0.2,0.1-0.2,0.2
				l0,0.2c0,0.1,0.1,0.2,0.2,0.2l0.8,0l-0.1,0.1c0,0-0.1,0.1-0.1,0.1l0,0.2l-4.1-0.4c0,0-0.1,0-0.1,0l-0.5,0.2L87,6.9
				c-0.1,0.1-0.1,0.1-0.1,0.2l0,0C86.9,7.2,87,7.3,87.1,7.3z M91,8.2L91,8.2L91,8.2l-0.3,0L91,8.2z"/>
			<polygon id="XMLID_35_" class="st0" points="137.3,26.1 134.9,24.6 132.9,23.3 134.9,24.6 			"/>
			<path id="XMLID_34_" class="st0" d="M86.6,7.5c-0.2,0.2-0.3,0.4-0.5,0.5c-0.2,0.2-0.3,0.4-0.5,0.6c0.1-0.2,0.3-0.4,0.5-0.6
				C86.2,7.8,86.4,7.7,86.6,7.5z"/>
			<path id="XMLID_16_" class="st0" d="M163.9,39.7l-0.2-0.7l0-0.2c0-0.1,0-0.1-0.1-0.2l-0.2-0.2l-0.2-0.7l-0.2-0.5l-0.4-0.5l0-0.2
				h0c0.1,0,0.2-0.1,0.2-0.2l0.1-1.8c0-0.1,0-0.1-0.1-0.2l-0.4-0.4l-0.2-4.5l0-0.4c0-0.1,0-0.1-0.1-0.2l-0.4-0.2l-0.2-0.2
				c-0.1-0.1-0.2-0.1-0.2,0l-0.4,0.2l-0.7,0l-1.1,0.2l-2-0.1l-1.3-0.5c0,0,0,0-0.1,0l-0.2,0c0,0-0.1,0-0.1,0l-0.9,0.4l-0.6,0
				l-0.8-0.5c0,0-0.1,0-0.1,0l-0.5,0c0,0-0.1,0-0.1,0l-0.9,0.4l-0.4,0.2c-0.1,0-0.1,0.1-0.1,0.1l-0.3,0.6l-0.8,1.3l0,0l-0.1,0.1
				l-0.1,0c0,0,0,0-0.1,0l-0.1,0L149,31l0.7-0.1L149,31l-1,0l-0.1-0.1l-1.6-1.1c0,0-0.1,0-0.1,0l-0.1,0l-0.1-0.2c0,0,0,0-0.1-0.1
				l-0.4-0.2l-0.4-0.3c0,0-0.1,0-0.1,0l-1.3-0.1l-0.4-0.2c0,0-0.1,0-0.1,0l-0.2,0c0,0-0.1,0-0.1,0l-0.4,0.2l-0.7,0l-0.1,0
				c-0.1,0-0.2,0.1-0.2,0.2l0,0.1l-0.2,0.1l-0.2,0.2l-0.3,0l-0.1-0.2c0-0.1-0.1-0.1-0.1-0.1l-0.6,0l-0.4-0.2c0,0-0.1,0-0.1,0l-4.1,0
				c0,0-0.1,0-0.1,0l-0.4,0.2l-0.7,0.2c0,0-0.1,0-0.1,0l-0.4,0.4l-0.4,0.2l-0.7,0.2l-0.4,0.2l-0.9,0l-0.9,0.1l-0.4,0
				c0,0-0.1,0-0.1,0l-0.4,0.2l-0.4,0.2l-0.4,0l-0.4-0.2c0,0-0.1,0-0.1,0l-0.7,0.2h-0.1l-0.2-0.2l-0.4-0.3c0,0-0.1,0-0.1,0l-0.7,0
				l-0.6-0.2c0,0,0,0-0.1,0l-0.3,0l0.1-0.1l0.2-0.2c0.1-0.1,0.1-0.1,0.1-0.2s-0.1-0.1-0.2-0.1l-1.7-0.1l-0.4-0.4l-0.2-0.2
				c0,0-0.1-0.1-0.1-0.1l-0.4,0c0,0-0.1,0-0.1,0l-0.5,0.2c0,0,0,0-0.1,0l-0.2,0.2l-0.4,0.2l-0.6,0c0,0,0,0-0.1,0l-0.7,0.2l-0.2,0
				l-0.4-0.2c0,0-0.1,0-0.1,0l-0.1,0l-0.2-0.2c0,0-0.1-0.1-0.1-0.1l-0.4,0c0,0-0.1,0-0.1,0l-1.2,0.6l-0.9,0.8l-0.6,0.2l-0.4-0.2
				l-0.6-0.2l-0.2-0.2c0,0,0,0-0.1-0.1l-0.3-0.2l0-0.6c0-0.1,0-0.1-0.1-0.1l-0.2-0.2c0,0-0.1-0.1-0.1-0.1l-0.6,0l-0.4-0.2
				c0,0-0.1,0-0.1,0l-0.6,0l-0.7-0.4l0-0.5l0.1-0.1l0.4,0l1.4-0.2c0.1,0,0.2-0.1,0.2-0.1c0-0.1,0-0.2-0.1-0.2l-0.6-0.5l-0.2-0.2
				c0,0,0,0-0.1,0l-0.5-0.2c0,0-0.1,0-0.1,0l-0.2,0c0,0,0,0,0,0c0,0,0,0,0,0l0-0.2c0-0.1-0.1-0.2-0.2-0.2h-0.1l-0.2-0.4c0,0,0,0,0,0
				l-0.4-0.5l-0.2-0.4c0,0,0,0,0,0l-0.2-0.3l-0.1-0.1c0.1,0,0.1,0,0.1-0.1l0.1-0.1l0.1,0.1c0,0,0.1,0.1,0.1,0.1c0.1,0,0.1,0,0.2-0.1
				l0.2-0.2c0.1-0.1,0.1-0.1,0-0.2l-0.2-0.5c0,0,0,0,0-0.1l-0.4-0.5c0,0,0,0-0.1,0l-0.8-0.4l0-0.1c0,0,0-0.1,0-0.1l-0.2-0.5
				c0,0,0,0,0,0l-0.2-0.3c0,0,0,0-0.1,0l-0.4-0.2l-0.2-0.2c0,0,0,0-0.1,0l-0.4-0.2l-0.2-0.4l0-0.2c0-0.1,0-0.1-0.1-0.2l-0.4-0.3
				c0,0-0.1,0-0.1,0l-0.2,0l-0.1-0.2c0,0,0,0,0,0l-0.2-0.2l-0.2-0.2c0,0-0.1-0.1-0.2-0.1l-0.2,0l-0.7-0.5l-0.6-0.3l-0.2-0.2
				c0,0-0.1-0.1-0.1-0.1l-0.2,0c0,0,0,0-0.1,0l-1.1-1.6c0-0.1-0.1-0.1-0.2-0.1l-0.6,0l-1.1-0.5c0,0-0.1,0-0.1,0l-0.3,0l-0.7,0.1
				l0-0.4c0-0.1,0-0.1-0.1-0.2c-0.1,0-0.1-0.1-0.2,0l-0.3,0.1l-0.1-0.1c0,0-0.1-0.1-0.1-0.1l-0.5,0c0,0-0.1,0-0.1,0l-0.4,0.2h-0.1
				l-0.2-0.2c0,0,0,0-0.1,0l-0.7-0.3c0,0-0.1,0-0.1,0l-0.4,0c-0.1,0-0.1,0-0.2,0.1l-0.4,0.4l-0.5,0L95,13.9l0-0.1c0-0.1,0-0.1,0-0.1
				l-0.2-0.2c0-0.1-0.1-0.1-0.2-0.1l-0.2,0c0,0,0,0-0.1,0l-0.9,0.2l-0.7,0l-0.9,0.2c0,0-0.1,0-0.1,0l-0.7,0.4l-0.5,0.2
				c0,0,0,0-0.1,0l-0.2,0.2l-0.3,0.2L89.8,15l-0.2,0.2l-0.8,0c0,0-0.1,0-0.1,0l-0.5,0.2c0,0-0.1,0-0.1,0.1l-0.2,0.2l-0.4,0.1
				c-0.1,0-0.1,0.1-0.1,0.1l-0.2,0.5L87,16.6l-0.4,0.1c-0.1,0-0.1,0.1-0.1,0.2v0h0c-0.1,0-0.1,0-0.2,0.1l-0.2,0.2c0,0,0,0,0,0
				l-0.2,0.4l-0.4,0.4L85,18.3l-0.7,0.4l-0.7,0.2c-0.1,0-0.1,0.1-0.1,0.2c0,0.1,0,0.2,0.1,0.2l0.3,0.2l-0.1,0.1L83,19.7l-0.1,0
				c-0.1,0-0.1,0.1-0.2,0.2c0,0.1,0,0.2,0.1,0.2l0.1,0.1l0.3,0.2c0,0,0.1,0,0.1,0l0.1,0l-0.1,0.1l-0.2,0.2c0,0,0,0,0,0.1L83,21.2
				l-0.2,0.2c0,0-0.1,0.1-0.1,0.1c0,0.1,0,0.1,0.1,0.2L83,22c0,0,0,0,0,0l0.1,0.1l0,0l0.2,0.1l-0.2,0.2L83,22.6L82.5,23l-0.2,0
				c-0.1,0-0.2,0.1-0.2,0.2l0,0.8l-0.2,0.4l-0.4,0.4c-0.1,0.1-0.1,0.1-0.1,0.2c0,0.1,0.1,0.1,0.2,0.1l0.7,0c0,0,0.1,0,0.1,0L83,25
				l0.2,0c0,0,0.1,0,0.1,0h0l0.6-0.4l0,0.2l-0.2,0.4l-0.3,0.5l-0.1,0.2L82.8,26l-0.3,0.2l-0.3,0.3l-0.5,0.9c0,0,0,0.1,0,0.1l0,0.5
				c0,0.1,0,0.2,0.1,0.2c0.1,0,0.2,0,0.2,0l0.2-0.2l0,0l-0.4,1.4c0,0.1,0,0.1,0,0.2l0.2,0.2v0.1l-0.2,0.4c0,0,0,0.1,0,0.1l0,0.4
				c0,0,0,0.1,0.1,0.1l0.2,0.3l0.2,0.2c0,0,0.1,0.1,0.1,0.1c0.1,0,0.1,0,0.2-0.1l0.4-0.6l0.7-0.6l0.2,0l0,0H84l0,0.1l-0.4,1
				c0,0,0,0,0,0.1l0,0.6l-0.6,2c0,0,0,0.1,0,0.1l0.3,2c0,0.1,0.1,0.1,0.2,0.2c0.1,0,0.2,0,0.2-0.1l0.4-0.6l0.2-0.2l0.3,1.2l0,0.6
				l-0.2,0.6c0,0,0,0.1,0,0.2l0.2,0.4l0,0.2c0,0.1,0.1,0.2,0.2,0.2l0.4,0l0.3,0.1c0,0-0.1,0.1-0.1,0.1c0,0,0,0.1,0.1,0.2l0.8,0.9
				v0.1l-0.2,0.2c0,0-0.1,0.1-0.1,0.1l0,0.2c0,0.1,0,0.2,0.1,0.2l0.3,0.2l0,0.1c0,0.1,0,0.1,0.1,0.2l0.2,0.2l0,0.3c0,0,0,0.1,0,0.1
				l0.2,0.2l0.2,0.5c0,0.1,0.1,0.1,0.1,0.1c0,0,0.1,0,0.2,0l0.2-0.2l0.2-0.1l0,0.1c0,0,0,0.1,0,0.1l0.2,0.4c0,0.1,0.1,0.1,0.1,0.1
				c0.1,0,0.1,0,0.2,0l0.3-0.2l0.1-0.1l0.2,1.2c0,0.1,0.1,0.2,0.2,0.2c0,0,0,0,0,0c0.1,0,0.2,0,0.2-0.1l0.2-0.4l0.5,0.8l-0.1,1.3
				c0,0.1,0.1,0.2,0.2,0.2l0,0c0,0,0,0.1,0.1,0.2l0.2,0.2l0,0.6c0,0.1,0.1,0.2,0.2,0.2l0.2,0c0.1,0,0.2-0.1,0.2-0.2v0
				c0,0,0.1,0,0.1,0l0.1,0.2l-0.1,1c0,0.1,0,0.2,0.1,0.2c0.1,0,0.2,0,0.2,0l0.1-0.1l0,0.4c0,0.1,0.1,0.2,0.2,0.2l0.6,0l0.2,0.2
				l0.2,0.2l0,0.8c0,0,0,0.1,0.1,0.2l0.2,0.2l0.4,0.9c0,0.1,0.1,0.1,0.2,0.1l0.9,0l1.9,0.8c0.1,0,0.2,0,0.2-0.1l0.2-0.3l0.2,0.3
				c0,0,0,0,0.1,0.1l0.7,0.5c0.1,0,0.1,0,0.2,0s0.1-0.1,0.1-0.2l0.1-1.2l0.2,0c0.1,0,0.2-0.1,0.2-0.2l0.3-2.1l-0.1-2.1l-0.9-4.5
				l0-0.8l0.3-0.2c0,0,0.1,0,0.1-0.1l0.3-0.4c0,0,0-0.1,0-0.1l0.1-2c0-0.1,0-0.1-0.1-0.2l-0.2-0.2l0-0.4l-0.6-4.8l0.1-1.8
				c0,0,0-0.1,0-0.1l-0.2-0.5l-0.2-0.7l0-0.1l0.2-0.4c0,0,0-0.1,0-0.1l0.1-1.8l0.5-4.1l0-0.6l0.4-0.4c0,0,0.1-0.1,0.1-0.1l0-0.4
				l0.5-1l0.4-0.4l0.4-0.2c0,0,0,0,0.1,0l0.4-0.4l0.2-0.2l0.4-0.2l0.4,0l1.3-0.1l0.8,0.5l0.4,0.2l0.2,0.4c0,0,0,0,0,0l0.4,0.5
				l0.2,0.2l0.4,0.5l0.2,0.5c0,0,0,0,0,0.1l0.6,0.7l0.1,0.3c0,0-0.1,0-0.1,0l-0.5,0.2c-0.1,0-0.1,0.1-0.1,0.1c0,0,0,0.1,0,0.2
				l0.4,0.9l0.2,0.6l-0.1,1.1c0,0,0,0.1,0,0.1l0.2,0.5l0,0.1c0,0,0,0.1,0.1,0.1l0.2,0.2c0,0,0.1,0.1,0.2,0.1l0.2,0l0.2,0.2
				c0,0,0.1,0.1,0.1,0.1l-0.1,1c0,0.1,0,0.1,0.1,0.2l0.3,0.2l0,0l0.1,0l-0.1,0l0,0l0,0c0,0,0,0-0.1,0l-0.3,0.2c0,0-0.1,0.1-0.1,0.1
				l0,0.2c0,0.1,0,0.1,0.1,0.1l0.2,0.2l0,0.1c0,0.1,0.1,0.2,0.2,0.2l0.2,0h0v0l0,0.5c0,0,0,0,0,0.1l0.2,0.7c0,0,0,0.1,0,0.1l0.4,0.4
				l0,0.1c0,0,0,0.1,0.1,0.2l0.2,0.2l-0.1,1c0,0,0,0.1,0,0.1l0.2,0.3l0.2,0.2l0.2,0.3l0.4,0.5l0.1,0.1l-0.3,0.3c0,0-0.1,0.1-0.1,0.1
				l0,0.2c0,0.1,0,0.1,0.1,0.2l0.2,0.2c0,0,0.1,0.1,0.1,0.1l0,0.7c0,0,0,0,0,0.1l0.2,0.7c0,0,0,0,0,0.1l0.4,0.5l0.6,1.5l0,0.4
				c0,0.1,0.1,0.2,0.2,0.2l0.2,0l0.2,0.2l0.2,0.2l-0.1,1.1c0,0,0,0.1,0,0.1l0.2,0.5l0.2,0.7c0,0,0,0,0,0.1l2.2,2.5l-0.8,0.7l-1,1.1
				c-0.1,0.1-0.1,0.1,0,0.2s0.1,0.1,0.2,0.1l0.4,0l0.2,0.1l0,0c0,0-0.1,0.1-0.1,0.1l0,0.2c0,0.1,0,0.1,0.1,0.2l0.2,0.2l0.2,0.4
				l0,0.6l-0.2,0.4l-0.2,0.2c0,0-0.1,0.1-0.1,0.1l0,0.4c0,0,0,0.1,0,0.1l0.2,0.2l0,0.3l-0.2,0.2c0,0-0.1,0.1-0.1,0.1l0,0.7
				c0,0,0,0.1,0,0.1l0.2,0.2l0.4,0.9c0,0,0.1,0.1,0.1,0.1l0.4,0.2l0.4,0.5l0.2,0.2l0.2,0.2c0,0,0,0,0.1,0.1l0.3,0.2v0.1
				c0,0.1,0.1,0.2,0.2,0.2l1.6,0.1l1.2,0.3l2.9,0.4h0c0,0,0,0,0,0l2.7-0.1l2,0.1c0,0,0.1,0,0.1,0l1-0.4c0,0,0,0,0.1,0l0.2-0.2
				c0,0,0.1-0.1,0.1-0.1l0-0.7c0,0,0-0.1,0-0.1l-0.2-0.3l0.3-0.2l0.4,0l2.7-0.3l0.2,0c0.1,0,0.1,0,0.2-0.1l0.2-0.4l0.2-0.2
				c0,0,0.1-0.1,0.1-0.2l0.1-0.9c0,0,0-0.1-0.1-0.1l-0.2-0.2c0,0,0,0-0.1-0.1l-0.9-0.5l-0.7-0.5l-0.9-0.5c0,0-0.1,0-0.1,0l-1,0
				l-0.4-0.4c0,0,0,0,0,0l-0.3-0.2l0.1-0.1l0.4-0.2c0,0,0,0,0.1,0l0.2-0.2l0.4-0.2l2.3-1.2l2-0.3l2.9,0.2L136,48l0.6,0.4l0.6,0.7
				l0.4,0.7c0,0,0,0,0.1,0.1l0.6,0.5l1.1,1.2l0.4,0.7l0.4,0.7l0.1,0.6l0,0.6c0,0,0,0,0,0.1l0.2,0.7l0.2,0.4c0,0,0.1,0.1,0.1,0.1
				l0.6,0.3l0.4,0.2c0,0,0.1,0,0.1,0h0l7.2,0.2l0.7,0c0,0,0.1,0,0.1,0l0.4-0.2c0,0,0.1,0,0.1-0.1l0.2-0.4l0.5-0.4l0.2-0.2
				c0,0,0.1-0.1,0.1-0.2c0,0,0-0.1-0.1-0.1l0.4-0.1l0.9-0.4c0,0,0,0,0.1,0l0.2-0.2c0,0,0,0,0-0.1l0.1-0.2l0.3,0.3l0.4,0.3
				c0,0,0.1,0,0.1,0l0.2,0c0.1,0,0.2,0,0.2-0.1c0-0.1,0-0.2,0-0.2l-0.1-0.2v-0.1l0.1-0.1l0.2,0c0.1,0,0.1,0,0.2-0.1s0.1-0.1,0-0.2
				l-0.2-0.5c0,0,0-0.1-0.1-0.1l-0.5-0.3l-0.7-0.3l-1.1-0.3l-1.1-0.3l-0.6-0.2l-0.4-0.2l-0.4-0.4l-0.2-0.5c0,0,0,0,0,0l-0.2-0.2
				l-0.2-0.4l0.1-2l0.3-0.6l0.5-0.7l0.4-0.4l1-0.7l0.9-0.8l0.4-0.2l0.7-0.4l0.5-0.4l0.5-0.4c0,0,0.1-0.1,0.1-0.1l0.2-0.6l0.3-0.5
				l0.2-0.4l0.4-0.3l1.6,0.7l0.9,0.5l1.1,0.5c0,0,0.1,0,0.1,0l0.9,0c0,0,0.1,0,0.1,0l0.5-0.2l0.4-0.2l0.2,0c0.1,0,0.1,0,0.1,0
				l0.2-0.1l0.6,0c0,0,0.1,0,0.1,0l0.5-0.2c0,0,0.1,0,0.1-0.1l0.2-0.4l0.5-0.5l0.3-0.4c0,0,0-0.1,0-0.1L163.9,39.7
				C164,39.7,164,39.7,163.9,39.7z M85.4,22.9l-0.5,0.7l0-0.7l0-0.2l0.2,0l0.4-0.2L85.4,22.9z M92.1,16.2l0.9-0.6l1.2-0.6l0.2,0
				l0.4,0.2l0.2,0.2l-0.2,0l-0.2,0.2l0.2,0.5l-0.2,0l-0.2,0.2l-0.2-0.7l-0.7,0.4l-0.5,0.6l-0.2,0l-0.4,0L92,16.4L92.1,16.2z
				 M91.7,22.3l0,0.2l-0.3,0.6l-0.5,0.9l-0.2-0.5l0-0.2L91,23l0.3-0.7l0.2,0l0.2-0.2L91.7,22.3z M92.7,26.2l0,0.5l-0.3,0.4l-0.2,0.4
				l0.3-2l0.2,0L92.7,26.2z M95.7,18.9l-0.2,0.2l-0.2,0.2L95,19.8L94.8,20l0.4,0l0.2,0.3l0,0.2l-1.2,0.6l0,0.5L94,21.7L93.6,22
				l-0.2,0.2l-0.2,0.2l-0.2-0.2l-0.2-0.2l0-0.2l0.3-0.4L92.7,21l0.9,0l0.7,0l0-0.4l0.2-0.2l0.3-0.4l-0.4,0l-0.2,0l-0.3,0.4l-0.2,0
				l0-0.2l-0.4,0.2l-0.5,0L91,22l-0.2,0l0.8-1.8L91.4,20l0.2-0.2l0-0.2l0.2,0l0-0.2l-0.4-0.3l0-0.5l0.2,0l0.2-0.2l0.3-0.2l0.2,0
				l0.7-0.2l0.4-0.2l0,0.5l-0.2,0.4l-0.5,0.9l0.3,0l0.2,0l0.4-0.2l0.5-0.2l0.5-0.4l1.7-0.8l0.2,0.2l0,0.5l-0.2,0L95.7,18.9z
				 M96.4,26.9l-0.2,0l0.1-1.6l0.2,0L96.4,26.9z M97.3,15.8L96.6,16l-0.2,0l0.2-0.2l0-0.2l0.4,0l0.2,0L97.3,15.8z M162,37.7
				l-0.2-0.4c0,0,0,0,0,0l-0.6-0.7l-0.8-1.8l-0.1-1.8l-0.6-1.8c0,0,0,0,0-0.1l-0.2-0.2l0-0.3l0.1,0.1c0,0,0.1,0,0.1,0l0.1,0l0.6,0.6
				l0.4,0.7l0.2,0.7l0.5,3l0.2,0.7c0,0,0,0,0,0l0.4,0.7l0.2,0.7l0.1,0.5L162,37.7z"/>
		</g>
	</g>
	<path id="XMLID_10_" class="st0" d="M474.3,55l-3.7,43.2h-0.2L466.5,55h-20l-4.1,43.2h-0.2L438.4,55h-14l5.6,50.2
		c3-2,8.4-5.6,11-5.8c3.4-0.2,7.1-0.2,9,0.2c1.9,0.4,2.3,0.3,2.3,0.3s0.8,0.2,0.8,0.4c0.1,0.2-0.3,2.1-0.2,2.3
		c0.1,0.1,0.3,0.3,0.4,0.3l0.1-1.4c0-0.6,0-1.2,0-1.2s0.1-0.1,0.2-0.2l0.4-3.8c0,0,0,0,0,0c-0.5-0.7-1.1-1.2-1.5-1.9
		c-0.5-0.8-0.7-1.4-0.8-2.3c-0.4-2.8-0.8-6.7,1-9.1c0.2-0.3,0.5-0.4,0.5-0.9s-0.2-0.5-0.4-0.6s-0.1-1.2,0.3-1.7
		c0.3-0.3,1.5-0.7,2.6-0.3l0.6-6h0.2l0.7,6.9c1.5,1.6,2.2,6.3,2.2,7s0.2,7.6,0.2,7.6c1.6,0.8,3.4,2,5.1,2.5c0.1,0,0.2,0.1,0.4,0.2
		c0.7,0.4,2.1,2.3,2.1,3.2c0,0.5-0.1,1,0.1,1.2s1.6,2.9,1.6,2.9s0.6,0.7,0.2,1.4s-0.6,1-0.9,1.3c-0.3,0.3-0.9,0.6-0.9,0.6
		s-2.4,0.7-3,0.7c0,0,0.1,1.4-0.8,3.4H482l6.4-57.5L474.3,55L474.3,55z"/>
	<path id="XMLID_6_" class="st0" d="M90.9,77c0.9-1.7,1.5-3,1.3-3.6c-0.5-1.3-1.6-1.3-5.5,0.1c-3.7,1.3-8.8,5.2-9.4,7.1
		c-0.4,1.2-0.8,1.3-4,0.5c-4.7-1.1-5.3-1.6-7-5.4c-1.3-3.1-4.3-6-6.8-6.8c0,0-0.1,0-0.1-0.1c-0.5-0.2-0.9-0.2-1.3-0.2h0c0,0,0,0,0,0
		h0h0h0h0v0h0h0c0,0-0.1,0-0.2,0c-1.6,0.2-1.7,0.6-1.7,4.1c0.1,4.9,2.6,10,5.3,10.7c1.8,0.4,1.9,0.7,1.4,3.6c-0.3,1.7-1,3.9-1.7,4.9
		c-1.4,2.1-0.4,5.1,2,5.8c3.6,1.2-0.3,3.1-5.4,2.7c-1.5-0.1-4,0.2-5.5,0.8c-2.3,0.8-3.3,0.8-7.8-0.7c-6.2-2-14.5-2.3-18.4-0.7
		c-1.5,0.6-3.9,2.2-5.4,3.5c-3.1,2.7-4.8,3-5.9,0.9c-1-1.9-1-7.9,0-11.7c0.4-1.5,0.6-3,0.4-3.3l0,0l0,0c-0.8-0.8-5.8,3.7-6.9,6.3
		c-1.5,3.6-1.2,6.2,0.9,8.8c1,1.2,4.6,6.7,4.3,8.1c-0.6,2.7,1.4,6.3,4.6,8.2c3.1,1.9,4.6,5.1,3.6,7.7c-0.4,1-2,2.9-3.5,4.3
		c-2.1,1.8-2.7,2.8-2.2,3.8c0.5,1.3,3.1,15.7,2.2,31.3c-0.2,4,0.7,8,1.2,8.9c0.7,1.3,1.6,1.6,4.2,1.6c3.6,0,4.4-1,2.1-2.7
		c-1.5-1.1-2.2-6.1-2.9-20.4c-0.1-2.5-0.2-4.7-0.1-6.6c0.9,2.5,2.4,5.7,4.1,9.1c2,4,4,7.5,4.5,7.9s1,1.4,1,2.5
		c0,1.2,0.6,2.1,1.7,2.6c4,1.6,6.5-0.2,4.1-2.9c-0.7-0.8-1.2-1.7-1.2-2.2s-1.2-2.6-2.8-4.9c-1.5-2.2-3.8-6.2-5-8.8
		c-1.9-3.9-2.2-5.5-2-9.3c0.1-1.3-0.4-3.6-1-5.2c0.8-0.8,1.7-1.6,2.7-2.3c2.1-1.5,5.1-4,6.8-5.6l3-2.9l7.8-0.1c1.5,0,2.7,0,3.7,0
		c0.1,0.7,0.1,1.8,0,3.4c-0.2,3.5-1,9.4-1,9.4c-0.6,7.5-1.4,12.9-2.4,15.9c-1.7,5-1.7,9.2,0.2,12.1c0.8,1.3,1.9,1.9,3.5,1.9
		c2.1,0,3-1.3,1.7-2.6l0,0c-0.3-0.3-0.9-2.1-1.4-3.9c-1.1-4.4-0.1-12,2.3-17.2c1-2.2,1.9-5,1.9-6.2s0.4-3.6,0.8-5.2
		c0.2-0.6,0.7-2.6,1.3-4.1c1,2.2,1.6,5.4,1.6,9.1c0,2,0.5,4.9,1.1,6.4c1.2,3.2,2.7,11.6,2.7,15.3c0,1.4,0.7,3.3,1.5,4.4
		c0.9,1.1,1.3,2.5,1.1,3.3c-0.3,1,0.2,1.6,2.3,2.5c5.4,2.3,7.5,1.1,4.5-2.5c-4.8-5.7-7.3-16.9-7.4-32.6l-0.1-11.2l3.2-3.6
		c1.9-2.2,3.4-4.7,3.7-6.4c0.3-1.5,1.1-3.6,1.8-4.6s1.8-3.6,2.4-5.7c0.6-2.1,1.8-5.3,2.7-7.2c0.8-1.8,1.8-4.8,2.1-6.6
		c0.4-2.7,1-3.6,3.5-5.1C85.9,84.2,89.1,80.1,90.9,77L90.9,77L90.9,77z"/>
</g>
</svg>
