<?xml version="1.0" encoding="utf-8"?>
<!-- Generator: Adobe Illustrator 25.0.1, SVG Export Plug-In . SVG Version: 6.00 Build 0)  -->
<svg version="1.1" id="Layer_1" xmlns="http://www.w3.org/2000/svg" xmlns:xlink="http://www.w3.org/1999/xlink" x="0px" y="0px"
	 viewBox="0 0 310 357" style="enable-background:new 0 0 310 357;" xml:space="preserve">
<style type="text/css">
	.st0{fill:#58595B;}
	.st1{fill:#E6E7E8;}
	.st2{fill:#BCBEC0;}
	.st3{fill:#A7A9AC;}
	.st4{fill:#EABEC0;}
	.st5{fill:#6D6E71;}
	.st6{opacity:0.8;fill:#E6E7E8;}
	.st7{opacity:0.2;fill:#231F20;}
	.st8{fill:#414042;}
	.st9{fill:#F1F2F2;}
	.st10{fill:#231F20;}
	.st11{fill:#FFFFFF;}
	.st12{opacity:0.3;fill:#FFFFFF;}
	.st13{opacity:0.2;fill:#FFFFFF;}
</style>
<g id="character">
	<path class="st0" d="M291.6,314.1c-7.3,6-19.3,7.6-31.4,7.2h0c-5.1-0.1-10.2-0.7-14.9-1.3c-7.6-1.1-14.3-2.6-18.8-3.8
		c-3.5-0.9-5.6-1.7-5.9-2.1c-0.7-0.8-5.4-3.2-11.3-6c-4.5-2.1-9.6-4.4-14-6.2c-2.8-1.2-5.3-2.2-7.2-2.8c-2.9-1-5.7-3.5-8.2-6.3
		c-5.1-5.7-8.8-13-8.5-13c0,0-6.4-5.6,4.7-18c5.1-5.7,14.4-8,23.1-8.7c7.5-0.6,14.6,0,18.5,0.5c1.4,0.2,2.4,0.4,2.8,0.5
		c1.7,0.5,5.1,4.1,11,8.1c3.4,2.4,7.7,4.9,12.9,7.1c0.9,0.4,1.9,0.8,2.9,1.1c3.2,1.2,6.8,3.6,10.6,6.7c5,4.1,10.2,9.3,15.1,14.6
		C283.3,302.8,291.6,314.1,291.6,314.1z"/>
	<path class="st1" d="M217.7,253.5c-2.1,1.4-4.2,3.2-5.4,5.4c-2.9,5.8-10.6,22.9-10.9,26.4c-0.2,2.6-3.6,11.2-6.1,16.6
		c-2.8-1.2-5.3-2.2-7.2-2.8c-2.9-1-5.7-3.5-8.2-6.3c3.5-8,11.9-26.9,19.3-39.7C206.7,252.4,213.9,253,217.7,253.5z"/>
	<path class="st1" d="M244.5,269.2c-1.6,3.5-3.5,7.9-4.2,10.7c-1.2,5.2-8,21-9.8,29l-4.1,7.3c-3.5-0.9-5.6-1.7-5.9-2.1
		c-0.7-0.8-5.4-3.2-11.3-6c2.7-3.6,6.9-9.5,7.3-13.1c0.6-5.5,9-23.2,11.3-26.1c1-1.3,2.4-4.1,3.7-6.8
		C235,264.5,239.3,267,244.5,269.2z"/>
	<path class="st1" d="M273,291.6c-3.5,6.7-9.8,19.4-12.8,29.7h0c-5.1-0.1-10.2-0.7-14.9-1.3c3-5.3,8.6-15.8,9.3-22.1
		c1-8.7,2.6-10.8,2.6-10.8s0.9-5.2,0.9-10.1C263,281,268.2,286.3,273,291.6z"/>
	<path class="st2" d="M165.1,325.9c-1,5.2,1.3,7.1,4.5,7.1c3.2,0,3.9,3.2,3.9,3.2c-2.6,5.8-5.5,3.5-10.7,1.3c-5.2-2.3-2.9-9-2.9-9
		c-0.4-12.1-3.7-19.1-7-23c-3.5-4.2-7.1-5-7.1-5c-4.8-2-9.2-3.6-13.4-4.9c-11.1-3.4-20-4.5-26.8-4c-8.3,0.6-13.7,3.4-16.6,6.9
		c-1.4,1.6-2.6,3.9-3.7,6.4c-4.9,11.1-7.4,28.4-7.4,28.4c1.3,2.4-0.4,5.1-0.4,5.1c-3,1.3-9.6,3.9-11.2,0c-1.6-3.9,5.8-5.9,5.8-5.9
		c1.9-3.6,0.6-19.8,0.6-19.8c-2.4-5.2-5.4-12.6-8.4-20.9c-7.6-20.5-16.1-46.8-19.6-59.6c-4.8-18,0-26.4,0-26.4
		c4.7-20.4,13.3-39.3,19-50.5c3.3-6.5,5.7-10.4,5.7-10.4s95.4-5.1,100.2-3.9c2.8,0.7,6.7,7.5,9.3,16.9c1.8,6.7,3.1,14.6,2.9,22.7
		c-0.4,19.6,0,57.9,0,57.9c-1.1,12.8-7.1,42.3-11.6,63.5C167.5,314.5,165.4,324,165.1,325.9z"/>
	<path class="st3" d="M77.4,49.5c0,0-50.7-4.1-61.4-3c0,0-1.3,6.7,5.6,17.4c0,0,9,15,13.3,18c4.3,3,5.3,5.1,5.6,8.6
		C40.9,93.9,77.4,49.5,77.4,49.5z"/>
	<path class="st4" d="M68,60.8c0,0-12-9-43-7.7c0,0-0.9,5.6,2.6,10.3c0,0,8.9,16.8,19.1,19.1C56.8,84.9,68,60.8,68,60.8z"/>
	<path class="st3" d="M136.8,42.6c0,0,32.9-23.4,45.4-26.4c0,0,3.4-1.3,4.7,7.7c1.3,9,3.5,22.3,0,35.2c-3.5,12.9,1.9,17.6,1.9,17.6
		L136.8,42.6z"/>
	<path class="st4" d="M145.5,48.4c0,0,16-9,22-14.6c0,0,5.2-4.9,9-5.7c3.9-0.8,1.7,14.6,2.6,18.3c0.9,3.7,1.7,12,0.6,22
		S145.5,48.4,145.5,48.4z"/>
	<path class="st2" d="M219.2,96.1c-3,5.8-10.5,16.7-19.2,27c-1.8,2.1-3.6,4.3-5.5,6.3c-4.3,4.8-8.7,9.2-12.8,12.6c0,0,0,0,0,0
		c-1.2,1.1-2.5,2-3.6,2.9c0,0,0,0,0,0c-0.7,0.5-1.3,0.9-2,1.4c0,0-35.2,14.2-56.7,19.7c0,0-15.9-7.3-27.5-9
		c-6-0.9-16.2-3.9-26.5-7.7c-2.1-0.8-4.2-1.6-6.2-2.4c-5.6-2.3-11-4.7-15.3-7.1c-1.3-0.7-2.4-1.4-3.5-2.1c-0.5-0.3-1-0.6-1.5-1
		c-9-6.1-18.5-16.7-23.1-22.1c-1.8-2.2-2.9-3.5-2.9-3.5s20.6-6.9,36.9-33.5c0,0,20.2-35.6,55.4-36.9c0,0,29.2,0,34.8,3
		c5.6,3,28.8,11.2,46.8,32.2c0,0,30.5,13.7,33.5,15.9C220.9,92.1,220.4,93.7,219.2,96.1z"/>
	<path class="st1" d="M154.9,154.4c0.2,21-5.9,31.2-7.6,59.8s-11.9,58.3-13.2,62.3c-1,3.2-1.6,14.8-1.8,19.2
		c-11.1-3.4-20-4.5-26.8-4c-15.7-16.3-21-52.7-21-52.7c-7.1-19.6-1.9-50.2-2.6-56.3c-0.6-6.1-1.4-33.2-1.4-33.2L154.9,154.4z"/>
	<path class="st5" d="M79.1,239.3c-3.9-1-11.1-5.8-11.1-5.8l3.2,13.2c-5.1-3.2-7.4-10.9-7.4-10.9c-0.9,3.5-3,10.9-3,10.9
		c-5.5-8,0-20.3,0-20.3c-2.8-5.4-3.9-11.4-4-17.5c-0.2-8,1.2-16.2,2.6-23.7c2.4-13.2,8.7-5.5,8.7-5.5c6.3,9,0,16.4,0,16.4
		c-1.8,4.1-2.8,8-3.2,11.5c-1.4,10.2,1.5,17.1,1.5,17.1c5.5-1.6,12.9,2.6,12.9,2.6s-9,1-8,1.6C72.2,229.6,79.1,239.3,79.1,239.3z"/>
	<path class="st5" d="M173.8,226.4c0,0,5.5,12.2,0,20.3c0,0-2.1-7.4-3-10.9c0,0-2.3,7.7-7.4,10.9l3.2-13.2c0,0-7.3,4.8-11.1,5.8
		c0,0,6.9-9.7,8-10.3c1-0.6-8-1.6-8-1.6s7.4-4.2,12.9-2.6c0,0,2.5-5.9,1.7-14.9c-0.3-4.1-1.3-8.7-3.5-13.8c0,0-6.3-7.4,0-16.4
		c0,0,6.3-7.7,8.7,5.5c1.3,7,2.6,14.5,2.6,22C177.9,213.9,176.9,220.5,173.8,226.4z"/>
	<path class="st6" d="M219.2,96.1c-3,5.8-10.5,16.7-19.2,27c-1.8,2.1-3.6,4.3-5.5,6.3c-4.3,4.8-8.7,9.2-12.8,12.6c0,0,0,0,0,0
		c0,0.1-0.3,0.7-1,1.7h0c-1.6,0.8-2.5,1.1-2.7,1.2c0,0,0,0,0,0s-52.6-50.1-51.8-53.1c0.8-2.9,10.5-12.5,10.5-12.5
		c10.8-12.4,14-8.2,16.6-8.8c2.6-0.7,28.3,17.8,42.1,20.2C206.3,92.5,215.8,95.1,219.2,96.1z"/>
	<path class="st6" d="M111.7,93c0,2.9-35.1,43.5-46.2,56.3c-2.1-0.8-4.2-1.6-6.2-2.4c-5.6-2.3-11-4.7-15.3-7.1
		c-1.3-0.7-2.4-1.4-3.5-2.1c-0.5-0.3-1-0.6-1.5-1c-9-6.1-18.5-16.7-23.1-22.1c0,0,22.8-11.2,30.7-14.2c8-3,27.3-26.6,47.5-35.6
		c0,0,6.4-6.1,9.4,5.8c0,0,3,8.4,3,12.2C106.6,86.6,111.7,89.6,111.7,93z"/>
	<path class="st7" d="M178.8,158c-1.7,0.8-3.7,1.9-6.1,3.3c-14.6,8.6-43.4,11.2-43.4,11.2c-26.2-2.7-54.9-13-65.6-17.1
		c3.3-6.5,5.7-10.4,5.7-10.4s95.4-5.1,100.2-3.9C172.4,141.7,176.2,148.5,178.8,158z"/>
	<path class="st8" d="M159.8,63.2c0,0-8.9-10.5-14.3-7.5c-5.4,3,1.9,7.2,4.4,7.5C152.5,63.4,158.3,64.9,159.8,63.2z"/>
	<path class="st8" d="M83.4,64c-2.6-0.1,1.7-4.4,5.2-7c3.4-2.6,5.6-6.3,8.2-4c2.6,2.3,2.1,5.7-5.2,6.6C91.6,59.6,87.7,64.1,83.4,64z
		"/>
	<path class="st5" d="M200,123.1c-1.8,2.1-3.6,4.3-5.5,6.3c-11.1-5.6-17.5-13.6-25.3-17.1c-8.2-3.6-25.1-14.8-27.3-16.6
		c-2.2-1.8-6.8-17.1,8.2-21c15-3.9,23,16.3,30.1,25.8C186.1,108.3,196.5,119.4,200,123.1z"/>
	<path class="st9" d="M155.9,99.1c3.5-0.3,7.7-0.2,10.1-6.4c2.4-6.2-1.7-15.7-12.2-15.9c-10.5-0.2-12.2,11.4-11.8,12.5
		C142.4,90.3,144.6,99.9,155.9,99.1z"/>
	<path class="st10" d="M152.9,89l-5.6-1.3c0,0,1.7-5.8,7.9-5c6.2,0.9,7.1,6,6.2,7.9c-0.9,2-5.2,9-13.1,2.2L152.9,89z"/>
	<path class="st5" d="M94.1,101.8c0,0-21.6,14.4-30.3,18.9c-7.8,4-17.1,15.5-19.8,19c-1.3-0.7-2.4-1.4-3.5-2.1c-0.5-0.3-1-0.6-1.5-1
		c3.6-7.4,20.9-41.6,31.1-47.5c0,0,10.1-22.1,29-12.5C99.1,76.7,112.8,91.3,94.1,101.8z"/>
	<path class="st9" d="M86.2,99.1c2.2,0.3,12.9-0.1,14.8-7.6s-1.9-15.9-12-14.8c-10.1,1.1-13.1,8-12.4,12.5
		C77.2,93.7,78.7,98.1,86.2,99.1z"/>
	<path class="st10" d="M86,89.2l-4.3-2.8c0,0,2.6-4.5,8.2-3.8c5.6,0.7,6.7,6,6.2,8s-3,6.1-8.2,5.1c-5.2-1-6.2-5.1-6.2-5.1L86,89.2z"
		/>
	<path class="st11" d="M89,81.3c0.9-0.9,4.3,2.2,3.7,4.5s-2.4,2.4-3.7,1.4C87.8,86.2,87.5,82.9,89,81.3z"/>
	<path class="st9" d="M181.7,142C181.7,142,181.7,142,181.7,142c0,0.1-0.3,0.7-1,1.7h0c-1.6,0.8-2.5,1.1-2.7,1.2c0,0,0,0,0,0
		c-0.7,0.5-1.3,0.9-2,1.4c0,0-35.2,14.2-56.7,19.7c0,0-15.9-7.3-27.5-9c-6-0.9-16.2-3.9-26.5-7.7c-2.1-0.8-4.2-1.6-6.2-2.4
		c0,0,31.8-43,52.4-53.8c3.4-1.8,6.4-2.7,9-2.4c1.9,0.2,3.8,0.6,5.5,1.2C141.5,96.9,152.6,116,181.7,142z"/>
	<path class="st11" d="M154.3,81c0,0,6,2.8,2.6,6.1C153.4,90.4,151.7,83,154.3,81z"/>
	<path class="st10" d="M119.2,103.3c0,0-1.9-5.1-5.2-5.8c-3.2-0.6,1.9-6.4,6.4-4.3c0,0,7.9-0.5,5.8,4.8
		C124.2,103.3,119.2,103.3,119.2,103.3z"/>
	<path class="st8" d="M105.7,117.7c0,0,1.3,6.9,6.2,7.5c4.9,0.6,6.5-2.1,6.5-2.1s1.4,3,5.5,2.2c4.1-0.7,9.9-6.1,10.1-10.8
		c0,0-4.6,6.9-10.1,7.7c0,0-6.8,1.3-3.4-9.2c0,0,1-3.2,0.4-9.7c0,0-1.1-3.2-2.5,3.7c-0.9,4.4-1.6,12-1.6,12S112.8,126.5,105.7,117.7
		z"/>
	<path class="st7" d="M79.1,239.3c-3.9-1-11.1-5.8-11.1-5.8l3.2,13.2c-5.1-3.2-7.4-10.9-7.4-10.9c-0.9,3.5-3,10.9-3,10.9
		c-5.5-8,0-20.3,0-20.3c-2.8-5.4-3.9-11.4-4-17.5c2.3,0.1,5-0.2,8-1.3c-1.4,10.2,1.5,17.1,1.5,17.1c5.5-1.6,12.9,2.6,12.9,2.6
		s-9,1-8,1.6C72.2,229.6,79.1,239.3,79.1,239.3z"/>
	<path class="st7" d="M173.8,226.4c0,0,5.5,12.2,0,20.3c0,0-2.1-7.4-3-10.9c0,0-2.3,7.7-7.4,10.9l3.2-13.2c0,0-7.3,4.8-11.1,5.8
		c0,0,6.9-9.7,8-10.3c1-0.6-8-1.6-8-1.6s7.4-4.2,12.9-2.6c0,0,2.5-5.9,1.7-14.9c2.6-0.7,5.3-1.6,7.8-2.7
		C177.9,213.9,176.9,220.5,173.8,226.4z"/>
	<path class="st7" d="M77.8,333.4c1.3,2.4-0.4,5.1-0.4,5.1c-3,1.3-9.6,3.9-11.2,0c-1.6-3.9,5.8-5.9,5.8-5.9
		c1.9-3.6,0.6-19.8,0.6-19.8c-2.4-5.2-5.4-12.6-8.4-20.9c5,4.5,13.1,10.8,21,13.1C80.4,316.1,77.8,333.4,77.8,333.4z"/>
	<path class="st7" d="M173.4,336.2c-2.6,5.8-5.5,3.5-10.7,1.3c-5.2-2.3-2.9-9-2.9-9c-0.4-12.1-3.7-19.1-7-23
		c5.4-0.4,13.3-1.4,17.3-3.3c-2.6,12.3-4.7,21.8-5.1,23.7c-1,5.2,1.3,7.1,4.5,7.1C172.7,333,173.4,336.2,173.4,336.2z"/>
</g>
<g id="portrait_2_">
	<path class="st3" d="M76.8,49.7c0,0-50.7-4.1-61.4-3c0,0-1.3,6.7,5.6,17.4c0,0,9,15,13.3,18c4.3,3,5.3,5.1,5.6,8.6
		C40.3,94.2,76.8,49.7,76.8,49.7z"/>
	<path class="st4" d="M67.4,61.1c0,0-12-9-43-7.7c0,0-0.9,5.6,2.6,10.3c0,0,8.9,16.8,19.1,19.1C56.2,85.2,67.4,61.1,67.4,61.1z"/>
	<path class="st3" d="M136.2,42.9c0,0,32.9-23.4,45.4-26.4c0,0,3.4-1.3,4.7,7.7s3.5,22.3,0,35.2c-3.5,12.9,1.9,17.6,1.9,17.6
		L136.2,42.9z"/>
	<path class="st4" d="M144.9,48.7c0,0,16-9,22-14.6c0,0,5.2-4.9,9-5.7c3.9-0.8,1.7,14.6,2.6,18.3c0.9,3.7,1.7,12,0.6,22
		C178.1,78.7,144.9,48.7,144.9,48.7z"/>
	<path class="st2" d="M218.6,96.3c-3,5.8-10.5,16.7-19.2,27c-1.8,2.1-3.6,4.3-5.5,6.3c-4.3,4.8-8.7,9.2-12.8,12.6c0,0,0,0,0,0
		c-1.2,1.1-2.5,2-3.6,2.9c0,0,0,0,0,0c-0.7,0.5-1.3,0.9-2,1.4c0,0-35.2,14.2-56.7,19.7c0,0-15.9-7.3-27.5-9
		c-6-0.9-16.2-3.9-26.5-7.7c-2.1-0.8-4.2-1.6-6.2-2.4c-5.6-2.3-11-4.7-15.3-7.1c-1.3-0.7-2.4-1.4-3.5-2.1c-0.5-0.3-1-0.6-1.5-1
		c-9-6.1-18.5-16.7-23.1-22.1c-1.8-2.2-2.9-3.5-2.9-3.5s20.6-6.9,36.9-33.5c0,0,20.2-35.6,55.4-36.9c0,0,29.2,0,34.8,3
		c5.6,3,28.8,11.2,46.8,32.2c0,0,30.5,13.7,33.5,15.9C220.3,92.4,219.8,94,218.6,96.3z"/>
	<path class="st6" d="M218.6,96.3c-3,5.8-10.5,16.7-19.2,27c-1.8,2.1-3.6,4.3-5.5,6.3c-4.3,4.8-8.7,9.2-12.8,12.6c0,0,0,0,0,0
		c0,0.1-0.3,0.7-1,1.7h0c-1.6,0.8-2.5,1.1-2.7,1.2c0,0,0,0,0,0S124.9,95,125.7,92.1c0.8-2.9,10.5-12.5,10.5-12.5
		c10.8-12.4,14-8.2,16.6-8.8c2.6-0.7,28.3,17.8,42.1,20.2C205.8,92.8,215.2,95.4,218.6,96.3z"/>
	<path class="st6" d="M111.1,93.3c0,2.9-35.1,43.5-46.2,56.3c-2.1-0.8-4.2-1.6-6.2-2.4c-5.6-2.3-11-4.7-15.3-7.1
		c-1.3-0.7-2.4-1.4-3.5-2.1c-0.5-0.3-1-0.6-1.5-1c-9-6.1-18.5-16.7-23.1-22.1c0,0,22.8-11.2,30.7-14.2c8-3,27.3-26.6,47.5-35.6
		c0,0,6.4-6.1,9.4,5.8c0,0,3,8.4,3,12.2C106,86.9,111.1,89.9,111.1,93.3z"/>
	<path class="st8" d="M149.5,71.5c0,0-4.1-1-8.2-3.3c-2.2-1.2-4.2-5.3-6.1-4.2c-5.4,3,1.2,8,3.7,8.3C141.5,72.5,148,73.2,149.5,71.5
		z"/>
	<path class="st8" d="M94.7,71.2c-2.6-0.1,3.3-3.7,7.1-5.8c1.6-0.9,3.7-7.4,6.3-5.1s2.7,7.7-5.1,10.6C103,70.8,99,71.3,94.7,71.2z"
		/>
	<path class="st5" d="M199.4,123.4c-1.8,2.1-3.6,4.3-5.5,6.3c-11.1-5.6-17.5-13.6-25.3-17.1c-8.2-3.6-25.1-14.8-27.3-16.6
		c-2.2-1.8-6.8-17.1,8.2-21c15-3.9,23,16.3,30.1,25.8C185.5,108.6,195.9,119.6,199.4,123.4z"/>
	<path class="st9" d="M155.4,99.3c3.5-0.3,7.7-0.2,10.1-6.4c2.4-6.2-1.7-15.7-12.2-15.9c-10.5-0.2-12.2,11.4-11.8,12.5
		C141.8,90.5,144,100.2,155.4,99.3z"/>
	<path class="st10" d="M152.4,89.2l-5.6-1.3c0,0,1.7-5.8,7.9-5c6.2,0.9,7.1,6,6.2,7.9c-0.9,2-5.2,9-13.1,2.2L152.4,89.2z"/>
	<path class="st5" d="M93.6,102.1c0,0-21.6,14.4-30.3,18.9c-7.8,4-17.1,15.5-19.8,19c-1.3-0.7-2.4-1.4-3.5-2.1c-0.5-0.3-1-0.6-1.5-1
		c3.6-7.4,20.9-41.6,31.1-47.5c0,0,10.1-22.1,29-12.5C98.5,77,112.2,91.6,93.6,102.1z"/>
	<path class="st9" d="M85.6,99.4c2.2,0.3,12.9-0.1,14.8-7.6c1.9-7.5-1.9-15.9-12-14.8C78.3,78.1,75.3,85,76,89.5
		C76.6,94,78.1,98.4,85.6,99.4z"/>
	<path class="st10" d="M85.4,89.4l-4.3-2.8c0,0,2.6-4.5,8.2-3.8c5.6,0.7,6.7,6,6.2,8s-3,6.1-8.2,5.1c-5.2-1-6.2-5.1-6.2-5.1
		L85.4,89.4z"/>
	<path class="st11" d="M88.5,81.6c0.9-0.9,4.3,2.2,3.7,4.5s-2.4,2.4-3.7,1.4C87.2,86.5,86.9,83.2,88.5,81.6z"/>
	<path class="st9" d="M181.2,142.3C181.2,142.3,181.2,142.3,181.2,142.3c0,0.1-0.3,0.7-1,1.7h0c-1.6,0.8-2.5,1.1-2.7,1.2
		c0,0,0,0,0,0c-0.7,0.5-1.3,0.9-2,1.4c0,0-35.2,14.2-56.7,19.7c0,0-15.9-7.3-27.5-9c-6-0.9-16.2-3.9-26.5-7.7
		c-2.1-0.8-4.2-1.6-6.2-2.4c0,0,31.8-43,52.4-53.8c3.4-1.8,6.4-2.7,9-2.4c1.9,0.2,3.8,0.6,5.5,1.2C141,97.2,152,116.2,181.2,142.3z"
		/>
	<path class="st11" d="M153.7,81.3c0,0,6,2.8,2.6,6.1C152.8,90.7,151.1,83.3,153.7,81.3z"/>
	<path class="st10" d="M118.7,103.6c0,0-1.9-5.1-5.2-5.8c-3.2-0.6,1.9-6.4,6.4-4.3c0,0,7.9-0.5,5.8,4.8
		C123.6,103.6,118.7,103.6,118.7,103.6z"/>
	<path class="st8" d="M106.8,131c0,0-0.4-6.1,4.6-5.5c4.9,0.6,6.5-2.1,6.5-2.1s1.4,3,5.5,2.2c4.1-0.7,6.7,8.8,6.9,4.1
		c0,0-1.4-8-6.9-7.2c0,0-6.8,1.3-3.4-9.2c0,0,1-3.2,0.4-9.7c0,0-1.1-3.2-2.5,3.7c-0.9,4.4-2.8,14-2.8,14S100.9,122.9,106.8,131z"/>
	<g>
		<path class="st12" d="M71.4,89c0,0,0.8-1.9,2.3-0.9c1.5,0.9,1.8,9.1,5.7,11c3.9,1.9,10-0.3,12.1-1.5c2-1.2,2.3-0.5,1.9,0.9
			c-0.4,1.4-5.5,10.7-15.1,5.9c0,0-3.2-2.9-5.1-7.1C71.3,92.9,70.2,91.8,71.4,89z"/>
		<path class="st13" d="M87.9,101c-0.6,0.6-1.2,1-2.1,1.2c-0.4,0.1-0.9,0-1.3,0c-0.5,0-1.1,0.3-1.6,0.3c-1.6,0-1.5,2.5,0,2.5
			c0.6,0,1.1-0.2,1.6-0.3c0.7-0.1,1.3,0,2-0.1c1.2-0.3,2.2-1.1,3.1-2C90.9,101.3,89.1,99.8,87.9,101z"/>
	</g>
	<g>
		<path class="st12" d="M146.7,97.7c0,0-0.7-2.2,1.1-2.5c1.8-0.2,7.6,6.8,11.9,5.7c4.2-1,7.2-7.3,7.9-9.8c0.7-2.5,1.4-2.1,2-0.6
			c0.7,1.5,3.4,13.2-7.1,15.8c0,0-4.4-0.3-8.7-2.7C149.4,101.2,147.8,101,146.7,97.7z"/>
		<path class="st13" d="M167.3,96.7c0,1-0.2,1.8-0.7,2.6c-0.2,0.4-0.7,0.6-1,0.9c-0.4,0.4-0.5,1-0.9,1.4c-1.2,1.1,0.6,3.2,1.7,2.1
			c0.4-0.4,0.6-0.9,0.9-1.4c0.4-0.6,1-0.9,1.4-1.5c0.7-1.2,0.9-2.5,0.9-4C169.7,94.9,167.4,94.8,167.3,96.7z"/>
	</g>
</g>
</svg>
